<svg width="184" height="26" viewBox="0 0 184 26" fill="none" xmlns="http://www.w3.org/2000/svg">
<path d="M0.664 22.352C0.493333 22.352 0.408 22.256 0.408 22.064C0.408 22.0213 0.408 21.968 0.408 21.904C0.429333 21.84 0.450667 21.776 0.472 21.712C0.770667 20.9653 1.336 20.1867 2.168 19.376C3.02133 18.5653 4.152 17.7653 5.56 16.976C6.79733 16.2933 8.03467 15.632 9.272 14.992C10.5093 14.352 11.736 13.68 12.952 12.976C14.2747 12.208 15.2987 11.4293 16.024 10.64C16.7493 9.82933 17.1867 9.04 17.336 8.272C17.4 7.952 17.432 7.61067 17.432 7.248C17.432 5.49867 16.4933 4.624 14.616 4.624C11.928 4.624 9.4 6.24533 7.032 9.488C5.98667 10.9387 5.464 12.1333 5.464 13.072C5.464 14.0107 6.08267 14.48 7.32 14.48C8.51467 14.48 9.85867 13.904 11.352 12.752C12.9307 11.4933 13.72 10.3093 13.72 9.2C13.72 8.79467 13.5173 8.496 13.112 8.304C13.048 8.26133 13.016 8.21867 13.016 8.176C13.016 8.09067 13.0693 8.048 13.176 8.048C13.432 8.048 13.6347 8.18667 13.784 8.464C13.912 8.67733 13.976 8.92267 13.976 9.2C13.976 10.5867 13.1973 11.8667 11.64 13.04C10.1893 14.1707 8.74933 14.736 7.32 14.736C5.35733 14.736 4.376 13.8187 4.376 11.984C4.376 11.0027 4.67467 10.1173 5.272 9.328C6.25333 7.92 7.62933 6.74667 9.4 5.808C10.296 5.31733 11.1707 4.95467 12.024 4.72C12.8987 4.464 13.7627 4.336 14.616 4.336C15.896 4.336 16.984 4.688 17.88 5.392C18.8827 6.13867 19.384 7.13067 19.384 8.368C19.384 9.712 18.4453 11.0347 16.568 12.336C16.0773 12.6773 15.448 13.0613 14.68 13.488C13.9333 13.8933 13.0267 14.3413 11.96 14.832C11.4907 15.0453 10.904 15.312 10.2 15.632C9.496 15.952 8.67467 16.3253 7.736 16.752C6.62667 17.2427 5.66667 17.712 4.856 18.16C4.04533 18.5867 3.37333 18.992 2.84 19.376C3.096 19.2053 3.34133 19.12 3.576 19.12C4.13067 19.12 4.68533 19.1627 5.24 19.248C5.816 19.312 6.392 19.4293 6.968 19.6C7.37333 19.6853 7.768 19.792 8.152 19.92C8.536 20.048 8.93067 20.1653 9.336 20.272C10.2747 20.528 11.0853 20.656 11.768 20.656C14.2427 20.656 15.48 19.8027 15.48 18.096C15.48 17.968 15.4693 17.84 15.448 17.712C15.4267 17.584 15.384 17.456 15.32 17.328C15.2773 17.2 15.2347 17.104 15.192 17.04C15.1707 16.976 15.16 16.944 15.16 16.944C15.16 16.8587 15.2027 16.816 15.288 16.816C15.416 16.816 15.5333 16.9973 15.64 17.36C15.6827 17.5093 15.7147 17.648 15.736 17.776C15.7573 17.8827 15.768 17.9893 15.768 18.096C15.768 19.1627 15.2453 20.1227 14.2 20.976C13.24 21.808 12.2053 22.224 11.096 22.224C10.1787 22.224 8.83467 21.968 7.064 21.456C6.168 21.2213 5.37867 21.04 4.696 20.912C4.03467 20.784 3.46933 20.72 3 20.72C2.25333 20.72 1.72 20.9867 1.4 21.52C1.10133 22.0747 0.856 22.352 0.664 22.352ZM23.0235 23.056C20.4208 23.056 19.1195 21.68 19.1195 18.928C19.1195 16.1973 20.3782 13.3173 22.8955 10.288C25.5195 7.13067 28.1435 5.552 30.7675 5.552C30.8528 5.552 30.8955 5.59467 30.8955 5.68C30.8955 5.76533 30.8528 5.808 30.7675 5.808C30.3408 5.91467 30.0102 6.032 29.7755 6.16C27.6422 7.184 25.1568 10.096 22.3195 14.896C21.4022 16.4107 20.9435 17.904 20.9435 19.376C20.9435 20.272 21.1142 20.9973 21.4555 21.552C21.8608 22.2773 22.4688 22.64 23.2795 22.64C24.7515 22.64 26.3088 21.9893 27.9515 20.688C28.6342 20.176 29.2635 19.6107 29.8395 18.992C30.4368 18.352 30.9915 17.6693 31.5035 16.944C31.8875 16.368 32.2502 15.76 32.5915 15.12C32.9542 14.48 33.2848 13.7973 33.5835 13.072C34.3942 11.152 34.7995 9.552 34.7995 8.272C34.7995 6.75733 34.2342 6 33.1035 6C32.1435 6 31.2582 6.416 30.4475 7.248C29.7222 7.97333 29.2422 8.83733 29.0075 9.84C28.9648 10.1173 28.9222 10.384 28.8795 10.64C28.8582 10.896 28.8475 11.1627 28.8475 11.44C28.8475 13.1467 29.3915 14 30.4795 14C30.5648 14 30.6395 13.9893 30.7035 13.968C30.7888 13.9467 30.8635 13.936 30.9275 13.936C31.0342 13.936 31.0875 13.9787 31.0875 14.064C31.0875 14.192 30.8742 14.256 30.4475 14.256C29.7435 14.256 29.2102 13.904 28.8475 13.2C28.5702 12.6667 28.4315 12.0053 28.4315 11.216C28.4315 10.96 28.4422 10.7147 28.4635 10.48C28.4848 10.224 28.5275 9.97867 28.5915 9.744C28.8262 8.61333 29.4342 7.62133 30.4155 6.768C31.4182 5.82933 32.4848 5.36 33.6155 5.36C34.5968 5.36 35.3435 5.82933 35.8555 6.768C36.2608 7.49333 36.4635 8.4 36.4635 9.488C36.4635 10.768 36.2075 12.0373 35.6955 13.296C34.5648 16.0267 32.9008 18.2773 30.7035 20.048C28.3142 22.0533 25.7542 23.056 23.0235 23.056ZM34.8483 25.04L53.5363 0.688H54.5603L35.8723 25.04H34.8483ZM60.8985 23.056C58.2958 23.056 56.9945 21.68 56.9945 18.928C56.9945 16.1973 58.2532 13.3173 60.7705 10.288C63.3945 7.13067 66.0185 5.552 68.6425 5.552C68.7278 5.552 68.7705 5.59467 68.7705 5.68C68.7705 5.76533 68.7278 5.808 68.6425 5.808C68.2158 5.91467 67.8852 6.032 67.6505 6.16C65.5172 7.184 63.0318 10.096 60.1945 14.896C59.2772 16.4107 58.8185 17.904 58.8185 19.376C58.8185 20.272 58.9892 20.9973 59.3305 21.552C59.7358 22.2773 60.3438 22.64 61.1545 22.64C62.6265 22.64 64.1838 21.9893 65.8265 20.688C66.5092 20.176 67.1385 19.6107 67.7145 18.992C68.3118 18.352 68.8665 17.6693 69.3785 16.944C69.7625 16.368 70.1252 15.76 70.4665 15.12C70.8292 14.48 71.1598 13.7973 71.4585 13.072C72.2692 11.152 72.6745 9.552 72.6745 8.272C72.6745 6.75733 72.1092 6 70.9785 6C70.0185 6 69.1332 6.416 68.3225 7.248C67.5972 7.97333 67.1172 8.83733 66.8825 9.84C66.8398 10.1173 66.7972 10.384 66.7545 10.64C66.7332 10.896 66.7225 11.1627 66.7225 11.44C66.7225 13.1467 67.2665 14 68.3545 14C68.4398 14 68.5145 13.9893 68.5785 13.968C68.6638 13.9467 68.7385 13.936 68.8025 13.936C68.9092 13.936 68.9625 13.9787 68.9625 14.064C68.9625 14.192 68.7492 14.256 68.3225 14.256C67.6185 14.256 67.0852 13.904 66.7225 13.2C66.4452 12.6667 66.3065 12.0053 66.3065 11.216C66.3065 10.96 66.3172 10.7147 66.3385 10.48C66.3598 10.224 66.4025 9.97867 66.4665 9.744C66.7012 8.61333 67.3092 7.62133 68.2905 6.768C69.2932 5.82933 70.3598 5.36 71.4905 5.36C72.4718 5.36 73.2185 5.82933 73.7305 6.768C74.1358 7.49333 74.3385 8.4 74.3385 9.488C74.3385 10.768 74.0825 12.0373 73.5705 13.296C72.4398 16.0267 70.7758 18.2773 68.5785 20.048C66.1892 22.0533 63.6292 23.056 60.8985 23.056ZM74.1953 22.352C74.0246 22.352 73.9393 22.256 73.9393 22.064C73.9393 22.0213 73.9393 21.968 73.9393 21.904C73.9606 21.84 73.9819 21.776 74.0033 21.712C74.3019 20.9653 74.8673 20.1867 75.6993 19.376C76.5526 18.5653 77.6833 17.7653 79.0913 16.976C80.3286 16.2933 81.5659 15.632 82.8033 14.992C84.0406 14.352 85.2673 13.68 86.4833 12.976C87.8059 12.208 88.8299 11.4293 89.5553 10.64C90.2806 9.82933 90.7179 9.04 90.8673 8.272C90.9313 7.952 90.9633 7.61067 90.9633 7.248C90.9633 5.49867 90.0246 4.624 88.1473 4.624C85.4593 4.624 82.9313 6.24533 80.5633 9.488C79.5179 10.9387 78.9953 12.1333 78.9953 13.072C78.9953 14.0107 79.6139 14.48 80.8513 14.48C82.0459 14.48 83.3899 13.904 84.8833 12.752C86.4619 11.4933 87.2513 10.3093 87.2513 9.2C87.2513 8.79467 87.0486 8.496 86.6433 8.304C86.5793 8.26133 86.5473 8.21867 86.5473 8.176C86.5473 8.09067 86.6006 8.048 86.7073 8.048C86.9633 8.048 87.1659 8.18667 87.3153 8.464C87.4433 8.67733 87.5073 8.92267 87.5073 9.2C87.5073 10.5867 86.7286 11.8667 85.1713 13.04C83.7206 14.1707 82.2806 14.736 80.8513 14.736C78.8886 14.736 77.9073 13.8187 77.9073 11.984C77.9073 11.0027 78.2059 10.1173 78.8033 9.328C79.7846 7.92 81.1606 6.74667 82.9313 5.808C83.8273 5.31733 84.7019 4.95467 85.5553 4.72C86.4299 4.464 87.2939 4.336 88.1473 4.336C89.4273 4.336 90.5153 4.688 91.4113 5.392C92.4139 6.13867 92.9153 7.13067 92.9153 8.368C92.9153 9.712 91.9766 11.0347 90.0993 12.336C89.6086 12.6773 88.9793 13.0613 88.2113 13.488C87.4646 13.8933 86.5579 14.3413 85.4913 14.832C85.0219 15.0453 84.4353 15.312 83.7313 15.632C83.0273 15.952 82.2059 16.3253 81.2673 16.752C80.1579 17.2427 79.1979 17.712 78.3873 18.16C77.5766 18.5867 76.9046 18.992 76.3713 19.376C76.6273 19.2053 76.8726 19.12 77.1073 19.12C77.6619 19.12 78.2166 19.1627 78.7713 19.248C79.3473 19.312 79.9233 19.4293 80.4993 19.6C80.9046 19.6853 81.2993 19.792 81.6833 19.92C82.0673 20.048 82.4619 20.1653 82.8673 20.272C83.8059 20.528 84.6166 20.656 85.2993 20.656C87.7739 20.656 89.0113 19.8027 89.0113 18.096C89.0113 17.968 89.0006 17.84 88.9792 17.712C88.9579 17.584 88.9153 17.456 88.8513 17.328C88.8086 17.2 88.7659 17.104 88.7233 17.04C88.7019 16.976 88.6912 16.944 88.6912 16.944C88.6912 16.8587 88.7339 16.816 88.8193 16.816C88.9473 16.816 89.0646 16.9973 89.1713 17.36C89.2139 17.5093 89.2459 17.648 89.2673 17.776C89.2886 17.8827 89.2993 17.9893 89.2993 18.096C89.2993 19.1627 88.7766 20.1227 87.7313 20.976C86.7713 21.808 85.7366 22.224 84.6273 22.224C83.7099 22.224 82.3659 21.968 80.5953 21.456C79.6993 21.2213 78.9099 21.04 78.2273 20.912C77.5659 20.784 77.0006 20.72 76.5312 20.72C75.7846 20.72 75.2513 20.9867 74.9313 21.52C74.6326 22.0747 74.3873 22.352 74.1953 22.352ZM90.4108 25.04L109.099 0.688H110.123L91.4348 25.04H90.4108ZM111.789 22.352C111.618 22.352 111.533 22.256 111.533 22.064C111.533 22.0213 111.533 21.968 111.533 21.904C111.554 21.84 111.576 21.776 111.597 21.712C111.896 20.9653 112.461 20.1867 113.293 19.376C114.146 18.5653 115.277 17.7653 116.685 16.976C117.922 16.2933 119.16 15.632 120.397 14.992C121.634 14.352 122.861 13.68 124.077 12.976C125.4 12.208 126.424 11.4293 127.149 10.64C127.874 9.82933 128.312 9.04 128.461 8.272C128.525 7.952 128.557 7.61067 128.557 7.248C128.557 5.49867 127.618 4.624 125.741 4.624C123.053 4.624 120.525 6.24533 118.157 9.488C117.112 10.9387 116.589 12.1333 116.589 13.072C116.589 14.0107 117.208 14.48 118.445 14.48C119.64 14.48 120.984 13.904 122.477 12.752C124.056 11.4933 124.845 10.3093 124.845 9.2C124.845 8.79467 124.642 8.496 124.237 8.304C124.173 8.26133 124.141 8.21867 124.141 8.176C124.141 8.09067 124.194 8.048 124.301 8.048C124.557 8.048 124.76 8.18667 124.909 8.464C125.037 8.67733 125.101 8.92267 125.101 9.2C125.101 10.5867 124.322 11.8667 122.765 13.04C121.314 14.1707 119.874 14.736 118.445 14.736C116.482 14.736 115.501 13.8187 115.501 11.984C115.501 11.0027 115.8 10.1173 116.397 9.328C117.378 7.92 118.754 6.74667 120.525 5.808C121.421 5.31733 122.296 4.95467 123.149 4.72C124.024 4.464 124.888 4.336 125.741 4.336C127.021 4.336 128.109 4.688 129.005 5.392C130.008 6.13867 130.509 7.13067 130.509 8.368C130.509 9.712 129.57 11.0347 127.693 12.336C127.202 12.6773 126.573 13.0613 125.805 13.488C125.058 13.8933 124.152 14.3413 123.085 14.832C122.616 15.0453 122.029 15.312 121.325 15.632C120.621 15.952 119.8 16.3253 118.861 16.752C117.752 17.2427 116.792 17.712 115.981 18.16C115.17 18.5867 114.498 18.992 113.965 19.376C114.221 19.2053 114.466 19.12 114.701 19.12C115.256 19.12 115.81 19.1627 116.365 19.248C116.941 19.312 117.517 19.4293 118.093 19.6C118.498 19.6853 118.893 19.792 119.277 19.92C119.661 20.048 120.056 20.1653 120.461 20.272C121.4 20.528 122.21 20.656 122.893 20.656C125.368 20.656 126.605 19.8027 126.605 18.096C126.605 17.968 126.594 17.84 126.573 17.712C126.552 17.584 126.509 17.456 126.445 17.328C126.402 17.2 126.36 17.104 126.317 17.04C126.296 16.976 126.285 16.944 126.285 16.944C126.285 16.8587 126.328 16.816 126.413 16.816C126.541 16.816 126.658 16.9973 126.765 17.36C126.808 17.5093 126.84 17.648 126.861 17.776C126.882 17.8827 126.893 17.9893 126.893 18.096C126.893 19.1627 126.37 20.1227 125.325 20.976C124.365 21.808 123.33 22.224 122.221 22.224C121.304 22.224 119.96 21.968 118.189 21.456C117.293 21.2213 116.504 21.04 115.821 20.912C115.16 20.784 114.594 20.72 114.125 20.72C113.378 20.72 112.845 20.9867 112.525 21.52C112.226 22.0747 111.981 22.352 111.789 22.352ZM134.149 23.056C131.546 23.056 130.245 21.68 130.245 18.928C130.245 16.1973 131.503 13.3173 134.021 10.288C136.645 7.13067 139.269 5.552 141.893 5.552C141.978 5.552 142.021 5.59467 142.021 5.68C142.021 5.76533 141.978 5.808 141.893 5.808C141.466 5.91467 141.135 6.032 140.901 6.16C138.767 7.184 136.282 10.096 133.445 14.896C132.527 16.4107 132.069 17.904 132.069 19.376C132.069 20.272 132.239 20.9973 132.581 21.552C132.986 22.2773 133.594 22.64 134.405 22.64C135.877 22.64 137.434 21.9893 139.077 20.688C139.759 20.176 140.389 19.6107 140.965 18.992C141.562 18.352 142.117 17.6693 142.629 16.944C143.013 16.368 143.375 15.76 143.717 15.12C144.079 14.48 144.41 13.7973 144.708 13.072C145.519 11.152 145.925 9.552 145.925 8.272C145.925 6.75733 145.359 6 144.229 6C143.269 6 142.383 6.416 141.573 7.248C140.847 7.97333 140.367 8.83733 140.133 9.84C140.09 10.1173 140.047 10.384 140.005 10.64C139.983 10.896 139.973 11.1627 139.973 11.44C139.973 13.1467 140.517 14 141.605 14C141.69 14 141.765 13.9893 141.829 13.968C141.914 13.9467 141.989 13.936 142.053 13.936C142.159 13.936 142.213 13.9787 142.213 14.064C142.213 14.192 141.999 14.256 141.573 14.256C140.869 14.256 140.335 13.904 139.973 13.2C139.695 12.6667 139.557 12.0053 139.557 11.216C139.557 10.96 139.567 10.7147 139.589 10.48C139.61 10.224 139.653 9.97867 139.717 9.744C139.951 8.61333 140.559 7.62133 141.541 6.768C142.543 5.82933 143.61 5.36 144.741 5.36C145.722 5.36 146.469 5.82933 146.981 6.768C147.386 7.49333 147.589 8.4 147.589 9.488C147.589 10.768 147.333 12.0373 146.821 13.296C145.69 16.0267 144.026 18.2773 141.829 20.048C139.439 22.0533 136.879 23.056 134.149 23.056ZM147.445 22.352C147.275 22.352 147.189 22.256 147.189 22.064C147.189 22.0213 147.189 21.968 147.189 21.904C147.211 21.84 147.232 21.776 147.253 21.712C147.552 20.9653 148.117 20.1867 148.949 19.376C149.803 18.5653 150.933 17.7653 152.341 16.976C153.579 16.2933 154.816 15.632 156.053 14.992C157.291 14.352 158.517 13.68 159.733 12.976C161.056 12.208 162.08 11.4293 162.805 10.64C163.531 9.82933 163.968 9.04 164.117 8.272C164.181 7.952 164.213 7.61067 164.213 7.248C164.213 5.49867 163.275 4.624 161.397 4.624C158.709 4.624 156.181 6.24533 153.813 9.488C152.768 10.9387 152.245 12.1333 152.245 13.072C152.245 14.0107 152.864 14.48 154.101 14.48C155.296 14.48 156.64 13.904 158.133 12.752C159.712 11.4933 160.501 10.3093 160.501 9.2C160.501 8.79467 160.299 8.496 159.893 8.304C159.829 8.26133 159.797 8.21867 159.797 8.176C159.797 8.09067 159.851 8.048 159.957 8.048C160.213 8.048 160.416 8.18667 160.565 8.464C160.693 8.67733 160.757 8.92267 160.757 9.2C160.757 10.5867 159.979 11.8667 158.421 13.04C156.971 14.1707 155.531 14.736 154.101 14.736C152.139 14.736 151.157 13.8187 151.157 11.984C151.157 11.0027 151.456 10.1173 152.053 9.328C153.035 7.92 154.411 6.74667 156.181 5.808C157.077 5.31733 157.952 4.95467 158.805 4.72C159.68 4.464 160.544 4.336 161.397 4.336C162.677 4.336 163.765 4.688 164.661 5.392C165.664 6.13867 166.165 7.13067 166.165 8.368C166.165 9.712 165.227 11.0347 163.349 12.336C162.859 12.6773 162.229 13.0613 161.461 13.488C160.715 13.8933 159.808 14.3413 158.741 14.832C158.272 15.0453 157.685 15.312 156.981 15.632C156.277 15.952 155.456 16.3253 154.517 16.752C153.408 17.2427 152.448 17.712 151.637 18.16C150.827 18.5867 150.155 18.992 149.621 19.376C149.877 19.2053 150.123 19.12 150.357 19.12C150.912 19.12 151.467 19.1627 152.021 19.248C152.597 19.312 153.173 19.4293 153.749 19.6C154.155 19.6853 154.549 19.792 154.933 19.92C155.317 20.048 155.712 20.1653 156.117 20.272C157.056 20.528 157.867 20.656 158.549 20.656C161.024 20.656 162.261 19.8027 162.261 18.096C162.261 17.968 162.251 17.84 162.229 17.712C162.208 17.584 162.165 17.456 162.101 17.328C162.059 17.2 162.016 17.104 161.973 17.04C161.952 16.976 161.941 16.944 161.941 16.944C161.941 16.8587 161.984 16.816 162.069 16.816C162.197 16.816 162.315 16.9973 162.421 17.36C162.464 17.5093 162.496 17.648 162.517 17.776C162.539 17.8827 162.549 17.9893 162.549 18.096C162.549 19.1627 162.027 20.1227 160.981 20.976C160.021 21.808 158.987 22.224 157.877 22.224C156.96 22.224 155.616 21.968 153.845 21.456C152.949 21.2213 152.16 21.04 151.477 20.912C150.816 20.784 150.251 20.72 149.781 20.72C149.035 20.72 148.501 20.9867 148.181 21.52C147.883 22.0747 147.637 22.352 147.445 22.352ZM169.517 22.64C166.125 22.64 164.429 21.4667 164.429 19.12C164.429 17.9467 165.015 17.0293 166.189 16.368C167.17 15.8347 168.301 15.568 169.581 15.568H170.093C170.861 15.6533 171.522 15.92 172.077 16.368C172.738 16.9013 173.069 17.52 173.069 18.224C173.069 18.8213 172.941 19.12 172.685 19.12C172.599 19.12 172.557 19.0773 172.557 18.992L172.653 18.736C172.738 18.5867 172.781 18.416 172.781 18.224C172.781 17.4773 172.429 16.88 171.725 16.432C171.127 16.0267 170.434 15.824 169.645 15.824C168.663 15.824 167.789 16.1227 167.021 16.72C166.253 17.36 165.869 18.1813 165.869 19.184C165.869 20.144 166.242 20.912 166.989 21.488C167.671 21.9787 168.514 22.224 169.517 22.224C171.415 22.224 173.175 21.4347 174.797 19.856C176.375 18.2987 177.165 16.5493 177.165 14.608C177.165 13.6267 176.866 12.88 176.269 12.368C175.693 11.856 174.903 11.6 173.901 11.6C172.919 11.6 172.034 11.7813 171.245 12.144C170.306 13.5307 169.613 14.224 169.165 14.224C168.951 14.224 168.845 14.096 168.845 13.84C168.845 13.712 168.93 13.5093 169.101 13.232C169.421 12.8267 169.879 12.4747 170.477 12.176C170.775 11.8133 171.117 11.3547 171.501 10.8C171.863 10.2667 172.173 9.776 172.429 9.328C172.706 8.88 172.941 8.45333 173.133 8.048C173.645 7.04533 173.975 6.416 174.125 6.16C174.637 5.456 175.202 5.104 175.821 5.104C176.098 5.104 176.439 5.168 176.845 5.296C177.25 5.40267 177.719 5.57333 178.253 5.808C179.319 6.27733 180.13 6.512 180.685 6.512C181.346 6.512 181.911 6.36267 182.381 6.064C182.935 5.72267 183.213 5.232 183.213 4.592C183.213 4.22933 183.117 3.952 182.925 3.76L182.637 3.44C182.637 3.35467 182.679 3.312 182.765 3.312C182.999 3.312 183.191 3.51467 183.341 3.92C183.469 4.24 183.533 4.528 183.533 4.784C183.533 5.68 183.181 6.416 182.477 6.992C181.837 7.54667 181.058 7.824 180.141 7.824C179.799 7.824 179.405 7.77067 178.957 7.664C178.53 7.55733 178.05 7.39733 177.517 7.184C176.471 6.75733 175.778 6.544 175.437 6.544C174.797 6.544 174.189 7.12 173.613 8.272C173.335 8.784 173.037 9.31733 172.717 9.872C172.397 10.4267 172.023 11.0133 171.597 11.632L171.533 11.728C172.493 11.4293 173.442 11.28 174.381 11.28C175.063 11.28 175.682 11.344 176.237 11.472C176.813 11.6 177.325 11.8133 177.773 12.112C178.861 12.7733 179.405 13.744 179.405 15.024C179.405 15.4293 179.351 15.8667 179.245 16.336C178.477 19.0667 176.183 20.9973 172.365 22.128C171.319 22.4693 170.37 22.64 169.517 22.64Z" fill="black"/>
</svg>
