<svg width="176" height="29" viewBox="0 0 176 29" fill="none" xmlns="http://www.w3.org/2000/svg">
<path d="M2.90625 17.3438C2.86458 17.4479 2.82812 17.5521 2.79688 17.6562C2.76562 17.75 2.75 17.8333 2.75 17.9062C2.75 18.0312 2.77604 18.1146 2.82812 18.1562C2.89062 18.1979 2.96875 18.2188 3.0625 18.2188C3.20833 18.2188 3.38542 18.1458 3.59375 18C3.80208 17.8542 4.02083 17.6406 4.25 17.3594L7.10938 13.8281L7.5 14.1406L4.04688 18.4062C3.79688 18.7188 3.56771 18.9792 3.35938 19.1875C3.16146 19.3958 2.96875 19.5625 2.78125 19.6875C2.60417 19.8021 2.42188 19.8854 2.23438 19.9375C2.05729 19.9896 1.86979 20.0156 1.67188 20.0156C1.35938 20.0156 1.09896 19.9271 0.890625 19.75C0.682292 19.5625 0.578125 19.3281 0.578125 19.0469C0.578125 18.7865 0.645833 18.4792 0.78125 18.125C0.90625 17.7708 1.07292 17.3385 1.28125 16.8281L4.23438 9.78125C4.06771 10.0417 3.875 10.3333 3.65625 10.6562C3.4375 10.9792 3.17188 11.3438 2.85938 11.75C2.55729 12.1562 2.21354 12.6146 1.82812 13.125C1.43229 13.625 0.979167 14.1875 0.46875 14.8125L0.078125 14.5C0.796875 13.6146 1.42188 12.8229 1.95312 12.125C2.48438 11.4167 2.94271 10.7812 3.32812 10.2188C3.71354 9.65625 4.04167 9.15104 4.3125 8.70312C4.58333 8.25521 4.82292 7.83333 5.03125 7.4375C5.23958 7.04167 5.42708 6.66667 5.59375 6.3125C5.77083 5.94792 5.95833 5.57292 6.15625 5.1875L7.9375 0.953125H9.8125L2.90625 17.3438ZM9.07812 19.375C9.45312 19.375 9.85938 19.2917 10.2969 19.125C10.7448 18.9583 11.2448 18.6719 11.7969 18.2656C12.3594 17.8594 12.9792 17.3125 13.6562 16.625C14.3333 15.9271 15.0938 15.0521 15.9375 14L16.3281 14.3125C15.6094 15.2292 14.9479 16.0104 14.3438 16.6562C13.7396 17.2917 13.1875 17.8229 12.6875 18.25C12.1875 18.6667 11.7344 18.9948 11.3281 19.2344C10.9323 19.4635 10.5781 19.6354 10.2656 19.75C9.95312 19.8646 9.67708 19.9375 9.4375 19.9688C9.19792 19.9896 8.99479 20 8.82812 20C8.57812 20 8.29688 19.9635 7.98438 19.8906C7.67188 19.8177 7.38021 19.6875 7.10938 19.5C6.83854 19.3021 6.61458 19.0365 6.4375 18.7031C6.25 18.3698 6.15625 17.9375 6.15625 17.4062C6.15625 16.625 6.28646 15.8698 6.54688 15.1406C6.79688 14.4115 7.13021 13.7292 7.54688 13.0938C7.96354 12.4479 8.43229 11.8594 8.95312 11.3281C9.48438 10.7969 10.0208 10.3438 10.5625 9.96875C11.1146 9.58333 11.6458 9.28646 12.1562 9.07812C12.6667 8.86979 13.1146 8.76562 13.5 8.76562C14.0521 8.76562 14.4479 8.93229 14.6875 9.26562C14.9375 9.58854 15.0625 10.0052 15.0625 10.5156C15.0625 10.9844 14.9583 11.4375 14.75 11.875C14.5417 12.3125 14.2656 12.7292 13.9219 13.125C13.5781 13.5104 13.1771 13.8698 12.7188 14.2031C12.2708 14.526 11.7969 14.8073 11.2969 15.0469C10.8073 15.276 10.3073 15.4583 9.79688 15.5938C9.29688 15.7292 8.82812 15.7969 8.39062 15.7969C8.25521 16.1927 8.15104 16.5677 8.07812 16.9219C7.99479 17.276 7.95312 17.6042 7.95312 17.9062C7.95312 18.4688 8.0625 18.8542 8.28125 19.0625C8.5 19.2708 8.76562 19.375 9.07812 19.375ZM12.9844 9.40625C12.7031 9.40625 12.3646 9.58854 11.9688 9.95312C11.5729 10.3073 11.1615 10.7708 10.7344 11.3438C10.3177 11.9167 9.91146 12.5573 9.51562 13.2656C9.13021 13.9635 8.80729 14.6615 8.54688 15.3594C9.28646 15.2344 9.95833 14.9844 10.5625 14.6094C11.1771 14.224 11.6979 13.7812 12.125 13.2812C12.5625 12.7708 12.8958 12.2344 13.125 11.6719C13.3646 11.1094 13.4844 10.5938 13.4844 10.125C13.4844 9.84375 13.4375 9.65625 13.3438 9.5625C13.25 9.45833 13.1302 9.40625 12.9844 9.40625ZM22.8438 17.3438C22.8021 17.4375 22.7656 17.5365 22.7344 17.6406C22.7031 17.7448 22.6875 17.8333 22.6875 17.9062C22.6875 18.0312 22.7135 18.1146 22.7656 18.1562C22.8281 18.1979 22.9062 18.2188 23 18.2188C23.1458 18.2188 23.3229 18.1458 23.5312 18C23.7396 17.8542 23.9583 17.6406 24.1875 17.3594L27.0469 13.8281L27.4375 14.1406L23.9844 18.4062C23.7344 18.7188 23.5 18.9792 23.2812 19.1875C23.0625 19.3958 22.8542 19.5625 22.6562 19.6875C22.4688 19.8021 22.276 19.8854 22.0781 19.9375C21.8906 19.9896 21.6979 20.0156 21.5 20.0156C21.1875 20.0156 20.9271 19.9271 20.7188 19.75C20.5104 19.5625 20.4062 19.3281 20.4062 19.0469C20.4062 18.7344 20.4635 18.4115 20.5781 18.0781C20.7031 17.7448 20.8802 17.3281 21.1094 16.8281C21.1927 16.651 21.2917 16.4219 21.4062 16.1406C21.5312 15.849 21.6615 15.5469 21.7969 15.2344C21.9323 14.9115 22.0677 14.5885 22.2031 14.2656C22.3385 13.9427 22.4583 13.651 22.5625 13.3906C22.6667 13.1198 22.75 12.8958 22.8125 12.7188C22.8854 12.5417 22.9219 12.4375 22.9219 12.4062C22.9219 12.3021 22.8854 12.25 22.8125 12.25C22.7188 12.25 22.6198 12.3281 22.5156 12.4844C22.4531 12.5677 22.3281 12.7448 22.1406 13.0156C21.9531 13.2865 21.724 13.6094 21.4531 13.9844C21.1823 14.3594 20.8906 14.7656 20.5781 15.2031C20.2656 15.6406 19.9531 16.0677 19.6406 16.4844C19.3281 16.901 19.0312 17.2812 18.75 17.625C18.4688 17.9688 18.2292 18.2396 18.0312 18.4375C17.5312 18.9375 17.0885 19.3333 16.7031 19.625C16.3177 19.9062 15.9375 20.0469 15.5625 20.0469C15.4375 20.0469 15.3021 20.0208 15.1562 19.9688C15 19.9167 14.8594 19.8281 14.7344 19.7031C14.599 19.5677 14.4896 19.3854 14.4062 19.1562C14.3229 18.9167 14.2812 18.6146 14.2812 18.25C14.2812 17.7083 14.4062 17.1094 14.6562 16.4531C14.8958 15.7969 15.2292 15.1302 15.6562 14.4531C16.0833 13.7656 16.5885 13.0938 17.1719 12.4375C17.7552 11.7812 18.3854 11.1927 19.0625 10.6719C19.75 10.1406 20.4688 9.69792 21.2188 9.34375C21.9688 8.98958 22.7292 8.77604 23.5 8.70312V8.98438C22.8646 9.17188 22.2552 9.46354 21.6719 9.85938C21.0885 10.2448 20.5417 10.6927 20.0312 11.2031C19.5208 11.7135 19.0573 12.2604 18.6406 12.8438C18.224 13.4167 17.8646 13.9844 17.5625 14.5469C17.2604 15.1094 17.0312 15.6458 16.875 16.1562C16.7083 16.6562 16.625 17.0781 16.625 17.4219C16.625 17.6094 16.6562 17.7656 16.7188 17.8906C16.7708 18.0156 16.849 18.0781 16.9531 18.0781C17.0677 18.0781 17.2396 17.9844 17.4688 17.7969C17.6875 17.6094 17.9427 17.3594 18.2344 17.0469C18.526 16.724 18.8438 16.3594 19.1875 15.9531C19.5312 15.5365 19.8802 15.1042 20.2344 14.6562C20.5885 14.2083 20.9375 13.7552 21.2812 13.2969C21.6354 12.8385 21.9635 12.4062 22.2656 12C22.724 11.375 23.1042 10.8594 23.4062 10.4531C23.7083 10.0469 23.9688 9.72396 24.1875 9.48438C24.4062 9.23438 24.6042 9.0625 24.7812 8.96875C24.9583 8.875 25.151 8.82812 25.3594 8.82812C25.5781 8.82812 25.7292 8.88542 25.8125 9C25.8958 9.11458 25.9375 9.25521 25.9375 9.42188C25.9375 9.55729 25.9167 9.69792 25.875 9.84375C25.8438 9.98958 25.8021 10.1198 25.75 10.2344C25.7083 10.3281 25.6146 10.5521 25.4688 10.9062C25.3333 11.25 25.1667 11.6667 24.9688 12.1562C24.7708 12.6354 24.5573 13.151 24.3281 13.7031C24.1094 14.2552 23.8958 14.7812 23.6875 15.2812C23.4896 15.7708 23.3125 16.2083 23.1562 16.5938C23 16.9688 22.8958 17.2188 22.8438 17.3438ZM30.5156 11.0469C30.5469 10.974 30.5625 10.9167 30.5625 10.875C30.5625 10.8125 30.5417 10.7708 30.5 10.75C30.4688 10.7188 30.4271 10.7031 30.375 10.7031C30.2708 10.7031 30.1771 10.7604 30.0938 10.875L27 14.7031L26.6094 14.3906L30.125 10.0469C30.3958 9.71354 30.6771 9.42188 30.9688 9.17188C31.2708 8.91146 31.5833 8.78125 31.9062 8.78125C32.2083 8.78125 32.4271 8.86458 32.5625 9.03125C32.6979 9.1875 32.7656 9.36458 32.7656 9.5625C32.7656 9.76042 32.7292 9.98438 32.6562 10.2344C32.5833 10.4844 32.4896 10.7448 32.375 11.0156L29.9688 16.9844C29.8229 17.349 29.7031 17.6823 29.6094 17.9844C29.5156 18.276 29.4688 18.5365 29.4688 18.7656C29.4688 18.9219 29.5104 19.0521 29.5938 19.1562C29.6771 19.25 29.7917 19.2969 29.9375 19.2969C30.1146 19.2969 30.3385 19.2083 30.6094 19.0312C30.8802 18.8438 31.1771 18.5938 31.5 18.2812C31.8229 17.9688 32.1615 17.6042 32.5156 17.1875C32.8802 16.7708 33.2448 16.3281 33.6094 15.8594C33.4323 15.599 33.3021 15.2917 33.2188 14.9375C33.1354 14.5833 33.0938 14.1875 33.0938 13.75C33.0938 13.125 33.2031 12.5156 33.4219 11.9219C33.6406 11.3177 33.9219 10.776 34.2656 10.2969C34.6198 9.81771 35.0104 9.43229 35.4375 9.14062C35.875 8.84896 36.3073 8.70312 36.7344 8.70312C37.1406 8.70312 37.4583 8.83333 37.6875 9.09375C37.9271 9.35417 38.0469 9.75 38.0469 10.2812C38.0469 10.7083 37.9688 11.1667 37.8125 11.6562C37.6562 12.1458 37.4427 12.6458 37.1719 13.1562C36.9115 13.6667 36.5938 14.1823 36.2188 14.7031C35.8542 15.224 35.4635 15.724 35.0469 16.2031C35.1719 16.2344 35.3125 16.25 35.4688 16.25C35.75 16.25 36.0208 16.2292 36.2812 16.1875C36.5417 16.1354 36.8125 16.0312 37.0938 15.875C37.375 15.7188 37.6719 15.4948 37.9844 15.2031C38.3073 14.901 38.6667 14.5052 39.0625 14.0156L39.4375 14.3438C39.0625 14.8333 38.7083 15.2344 38.375 15.5469C38.0417 15.8594 37.7135 16.1042 37.3906 16.2812C37.0781 16.4583 36.7656 16.5833 36.4531 16.6562C36.1406 16.7292 35.8177 16.7656 35.4844 16.7656C35.1615 16.7656 34.8854 16.7292 34.6562 16.6562C34.2083 17.1458 33.7396 17.599 33.25 18.0156C32.7708 18.4323 32.2969 18.7969 31.8281 19.1094C31.3594 19.4115 30.9062 19.651 30.4688 19.8281C30.0417 20.0052 29.651 20.0938 29.2969 20.0938C28.8698 20.0938 28.5312 19.9583 28.2812 19.6875C28.0312 19.4062 27.9062 18.9844 27.9062 18.4219C27.9062 18.0573 27.974 17.625 28.1094 17.125C28.2344 16.625 28.4167 16.0885 28.6562 15.5156L30.5156 11.0469ZM33.7031 13.7188C33.7031 14.3958 33.8021 14.9375 34 15.3438C34.3542 14.8438 34.6927 14.3385 35.0156 13.8281C35.349 13.3073 35.6354 12.8125 35.875 12.3438C36.1146 11.8646 36.3073 11.4219 36.4531 11.0156C36.599 10.599 36.6719 10.2448 36.6719 9.95312C36.6719 9.81771 36.651 9.69271 36.6094 9.57812C36.5677 9.45312 36.4635 9.39062 36.2969 9.39062C36.1094 9.39062 35.8646 9.50521 35.5625 9.73438C35.2708 9.95312 34.9844 10.2604 34.7031 10.6562C34.4323 11.0417 34.1979 11.5 34 12.0312C33.8021 12.5521 33.7031 13.1146 33.7031 13.7188ZM41.1719 19.375C41.5469 19.375 41.9531 19.2917 42.3906 19.125C42.8385 18.9583 43.3385 18.6719 43.8906 18.2656C44.4531 17.8594 45.0729 17.3125 45.75 16.625C46.4271 15.9271 47.1875 15.0521 48.0312 14L48.4219 14.3125C47.7031 15.2292 47.0417 16.0104 46.4375 16.6562C45.8333 17.2917 45.2812 17.8229 44.7812 18.25C44.2812 18.6667 43.8281 18.9948 43.4219 19.2344C43.026 19.4635 42.6719 19.6354 42.3594 19.75C42.0469 19.8646 41.7708 19.9375 41.5312 19.9688C41.2917 19.9896 41.0885 20 40.9219 20C40.6719 20 40.3906 19.9635 40.0781 19.8906C39.7656 19.8177 39.474 19.6875 39.2031 19.5C38.9323 19.3021 38.7083 19.0365 38.5312 18.7031C38.3438 18.3698 38.25 17.9375 38.25 17.4062C38.25 16.625 38.3802 15.8698 38.6406 15.1406C38.8906 14.4115 39.224 13.7292 39.6406 13.0938C40.0573 12.4479 40.526 11.8594 41.0469 11.3281C41.5781 10.7969 42.1146 10.3438 42.6562 9.96875C43.2083 9.58333 43.7396 9.28646 44.25 9.07812C44.7604 8.86979 45.2083 8.76562 45.5938 8.76562C46.1458 8.76562 46.5417 8.93229 46.7812 9.26562C47.0312 9.58854 47.1562 10.0052 47.1562 10.5156C47.1562 10.9844 47.0521 11.4375 46.8438 11.875C46.6354 12.3125 46.3594 12.7292 46.0156 13.125C45.6719 13.5104 45.2708 13.8698 44.8125 14.2031C44.3646 14.526 43.8906 14.8073 43.3906 15.0469C42.901 15.276 42.401 15.4583 41.8906 15.5938C41.3906 15.7292 40.9219 15.7969 40.4844 15.7969C40.349 16.1927 40.2448 16.5677 40.1719 16.9219C40.0885 17.276 40.0469 17.6042 40.0469 17.9062C40.0469 18.4688 40.1562 18.8542 40.375 19.0625C40.5938 19.2708 40.8594 19.375 41.1719 19.375ZM45.0781 9.40625C44.7969 9.40625 44.4583 9.58854 44.0625 9.95312C43.6667 10.3073 43.2552 10.7708 42.8281 11.3438C42.4115 11.9167 42.0052 12.5573 41.6094 13.2656C41.224 13.9635 40.901 14.6615 40.6406 15.3594C41.3802 15.2344 42.0521 14.9844 42.6562 14.6094C43.2708 14.224 43.7917 13.7812 44.2188 13.2812C44.6562 12.7708 44.9896 12.2344 45.2188 11.6719C45.4583 11.1094 45.5781 10.5938 45.5781 10.125C45.5781 9.84375 45.5312 9.65625 45.4375 9.5625C45.3438 9.45833 45.224 9.40625 45.0781 9.40625ZM58.8125 16.5781C58.6979 16.8281 58.6042 17.0885 58.5312 17.3594C58.4583 17.6198 58.4219 17.8385 58.4219 18.0156C58.4219 18.2552 58.4844 18.4062 58.6094 18.4688C58.7344 18.5208 58.8698 18.5469 59.0156 18.5469C59.1719 18.5469 59.3542 18.4375 59.5625 18.2188C59.7708 17.9896 59.9948 17.6927 60.2344 17.3281C60.4844 16.9635 60.7448 16.5417 61.0156 16.0625C61.2969 15.5833 61.5781 15.0938 61.8594 14.5938C62.1406 14.0833 62.4219 13.5781 62.7031 13.0781C62.9844 12.5677 63.2604 12.099 63.5312 11.6719C63.8958 11.0885 64.1979 10.6094 64.4375 10.2344C64.6875 9.84896 64.9167 9.54167 65.125 9.3125C65.3333 9.08333 65.5365 8.92708 65.7344 8.84375C65.9427 8.75 66.1927 8.70312 66.4844 8.70312C66.7031 8.70312 66.8802 8.76042 67.0156 8.875C67.151 8.98958 67.2188 9.13021 67.2188 9.29688C67.2188 9.43229 67.1979 9.57292 67.1562 9.71875C67.125 9.86458 67.0833 9.99479 67.0312 10.1094C66.9896 10.2031 66.8958 10.4271 66.75 10.7812C66.6146 11.1354 66.4427 11.5625 66.2344 12.0625C66.0365 12.5521 65.8229 13.0781 65.5938 13.6406C65.375 14.2031 65.1615 14.7396 64.9531 15.25C64.7552 15.75 64.5729 16.1927 64.4062 16.5781C64.25 16.9635 64.1458 17.2188 64.0938 17.3438C64.0521 17.4375 64.0156 17.5365 63.9844 17.6406C63.9531 17.7448 63.9375 17.8333 63.9375 17.9062C63.9375 18.0312 63.9635 18.1146 64.0156 18.1562C64.0781 18.1979 64.1562 18.2188 64.25 18.2188C64.3958 18.2188 64.5729 18.1458 64.7812 18C64.9896 17.8542 65.2083 17.6406 65.4375 17.3594L68.2969 13.8281L68.6875 14.1406L65.2344 18.4062C64.9844 18.7188 64.75 18.9792 64.5312 19.1875C64.3125 19.3958 64.1042 19.5625 63.9062 19.6875C63.7188 19.8021 63.526 19.8854 63.3281 19.9375C63.1406 19.9896 62.9479 20.0156 62.75 20.0156C62.4375 20.0156 62.1771 19.9271 61.9688 19.75C61.7604 19.5625 61.6562 19.3281 61.6562 19.0469C61.6562 18.7344 61.7135 18.4115 61.8281 18.0781C61.9531 17.7448 62.1302 17.3281 62.3594 16.8281C62.4427 16.651 62.5417 16.4219 62.6562 16.1406C62.7812 15.849 62.9115 15.5469 63.0469 15.2344C63.1823 14.9115 63.3177 14.5885 63.4531 14.2656C63.5885 13.9427 63.7083 13.651 63.8125 13.3906C63.9167 13.1198 64 12.8958 64.0625 12.7188C64.1354 12.5417 64.1719 12.4375 64.1719 12.4062C64.1719 12.3021 64.1354 12.25 64.0625 12.25C63.9688 12.25 63.8698 12.3281 63.7656 12.4844C63.1094 13.4844 62.5365 14.4427 62.0469 15.3594C61.5573 16.2656 61.0885 17.0677 60.6406 17.7656C60.1927 18.4531 59.7396 19 59.2812 19.4062C58.8333 19.8125 58.3229 20.0156 57.75 20.0156C57.4062 20.0156 57.1146 19.8906 56.875 19.6406C56.625 19.3802 56.5 19.0156 56.5 18.5469C56.5 18.3594 56.5208 18.1667 56.5625 17.9688C56.5938 17.7708 56.6354 17.5885 56.6875 17.4219C56.7396 17.2448 56.7917 17.0885 56.8438 16.9531C56.8854 16.8177 56.9219 16.7188 56.9531 16.6562L59.2969 11.0469C59.3281 10.974 59.3438 10.9167 59.3438 10.875C59.3438 10.8125 59.3229 10.7708 59.2812 10.75C59.25 10.7188 59.2083 10.7031 59.1562 10.7031C59.0521 10.7031 58.9583 10.7604 58.875 10.875L55.7812 14.7031L55.3906 14.3906L58.9062 10.0469C59.1771 9.71354 59.4583 9.42188 59.75 9.17188C60.0521 8.91146 60.3646 8.78125 60.6875 8.78125C60.9896 8.78125 61.2083 8.86458 61.3438 9.03125C61.4792 9.1875 61.5469 9.36458 61.5469 9.5625C61.5469 9.76042 61.5104 9.98438 61.4375 10.2344C61.3646 10.4844 61.2708 10.7448 61.1562 11.0156L58.8125 16.5781ZM66.8125 19.3125C66.8125 19.1562 66.875 18.9688 67 18.75C67.125 18.5312 67.2812 18.3281 67.4688 18.1406C67.6562 17.9427 67.8542 17.776 68.0625 17.6406C68.2708 17.4948 68.4583 17.4219 68.625 17.4219C68.8333 17.4219 68.9583 17.4896 69 17.625C69.0312 17.75 69.0417 17.8906 69.0312 18.0469C69.0104 18.2031 69 18.349 69 18.4844C69 18.6094 69.0781 18.6719 69.2344 18.6719C69.6719 18.6719 70.0781 18.4844 70.4531 18.1094C70.8281 17.7344 71.151 17.2552 71.4219 16.6719C71.7031 16.0885 71.9219 15.4375 72.0781 14.7188C72.2344 13.9896 72.3125 13.2812 72.3125 12.5938C72.3125 12 72.25 11.5156 72.125 11.1406C72.0104 10.7552 71.8802 10.4271 71.7344 10.1562C71.3802 10.6667 70.9167 11.2917 70.3438 12.0312C69.7812 12.7708 69.0625 13.6979 68.1875 14.8125L67.7969 14.5C68.6302 13.4375 69.3438 12.5208 69.9375 11.75C70.5312 10.9688 71.0417 10.2708 71.4688 9.65625C71.4167 9.54167 71.3698 9.4375 71.3281 9.34375C71.2969 9.23958 71.2812 9.13542 71.2812 9.03125C71.2812 8.79167 71.349 8.54688 71.4844 8.29688C71.6198 8.03646 71.7917 7.80208 72 7.59375C72.2083 7.38542 72.4375 7.21875 72.6875 7.09375C72.9479 6.95833 73.1979 6.89062 73.4375 6.89062C73.5625 6.89062 73.6979 6.92708 73.8438 7C73.9896 7.0625 74.0625 7.20312 74.0625 7.42188C74.0625 7.49479 74.026 7.59375 73.9531 7.71875C73.8802 7.84375 73.7969 7.97396 73.7031 8.10938C73.6198 8.24479 73.5417 8.375 73.4688 8.5C73.3958 8.625 73.3594 8.72396 73.3594 8.79688C73.3594 8.88021 73.3906 9.01562 73.4531 9.20312C73.526 9.39062 73.599 9.63021 73.6719 9.92188C73.7552 10.2135 73.8281 10.5521 73.8906 10.9375C73.9635 11.3125 74 11.7344 74 12.2031C74 12.7865 73.9271 13.3698 73.7812 13.9531C73.6354 14.526 73.4375 15.0833 73.1875 15.625C72.9375 16.1562 72.6406 16.6615 72.2969 17.1406C71.9531 17.6198 71.5833 18.0469 71.1875 18.4219C71.9688 17.9948 72.7917 17.4167 73.6562 16.6875C74.5208 15.9583 75.401 15.026 76.2969 13.8906L76.6875 14.2031C76.0625 15.0052 75.4167 15.7188 74.75 16.3438C74.0833 16.9688 73.4167 17.5156 72.75 17.9844C72.0833 18.4531 71.4219 18.8438 70.7656 19.1562C70.1198 19.4583 69.5 19.6875 68.9062 19.8438C68.7292 19.8958 68.5573 19.9375 68.3906 19.9688C68.2135 19.9896 68.0365 20 67.8594 20C67.7448 20 67.625 19.9948 67.5 19.9844C67.375 19.9635 67.2604 19.9271 67.1562 19.875C67.0521 19.8229 66.9688 19.7552 66.9062 19.6719C66.8438 19.5781 66.8125 19.4583 66.8125 19.3125ZM90.75 17.3438C90.7083 17.4375 90.6719 17.5365 90.6406 17.6406C90.6094 17.7448 90.5938 17.8333 90.5938 17.9062C90.5938 18.0312 90.6198 18.1146 90.6719 18.1562C90.7344 18.1979 90.8125 18.2188 90.9062 18.2188C91.0521 18.2188 91.2292 18.1458 91.4375 18C91.6458 17.8542 91.8646 17.6406 92.0938 17.3594L94.9531 13.8281L95.3438 14.1406L91.8906 18.4062C91.6406 18.7188 91.4062 18.9792 91.1875 19.1875C90.9688 19.3958 90.7604 19.5625 90.5625 19.6875C90.375 19.8021 90.1823 19.8854 89.9844 19.9375C89.7969 19.9896 89.6042 20.0156 89.4062 20.0156C89.0938 20.0156 88.8333 19.9271 88.625 19.75C88.4167 19.5625 88.3125 19.3281 88.3125 19.0469C88.3125 18.7344 88.3698 18.4115 88.4844 18.0781C88.6094 17.7448 88.7865 17.3281 89.0156 16.8281C89.099 16.651 89.1979 16.4219 89.3125 16.1406C89.4375 15.849 89.5677 15.5469 89.7031 15.2344C89.8385 14.9115 89.974 14.5885 90.1094 14.2656C90.2448 13.9427 90.3646 13.651 90.4688 13.3906C90.5729 13.1198 90.6562 12.8958 90.7188 12.7188C90.7917 12.5417 90.8281 12.4375 90.8281 12.4062C90.8281 12.3021 90.7917 12.25 90.7188 12.25C90.625 12.25 90.526 12.3281 90.4219 12.4844C90.3594 12.5677 90.2344 12.7448 90.0469 13.0156C89.8594 13.2865 89.6302 13.6094 89.3594 13.9844C89.0885 14.3594 88.7969 14.7656 88.4844 15.2031C88.1719 15.6406 87.8594 16.0677 87.5469 16.4844C87.2344 16.901 86.9375 17.2812 86.6562 17.625C86.375 17.9688 86.1354 18.2396 85.9375 18.4375C85.4375 18.9375 84.9948 19.3333 84.6094 19.625C84.224 19.9062 83.8438 20.0469 83.4688 20.0469C83.3438 20.0469 83.2083 20.0208 83.0625 19.9688C82.9062 19.9167 82.7656 19.8281 82.6406 19.7031C82.5052 19.5677 82.3958 19.3854 82.3125 19.1562C82.2292 18.9167 82.1875 18.6146 82.1875 18.25C82.1875 17.7083 82.3125 17.1094 82.5625 16.4531C82.8021 15.7969 83.1354 15.1302 83.5625 14.4531C83.9896 13.7656 84.4948 13.0938 85.0781 12.4375C85.6615 11.7812 86.2917 11.1927 86.9688 10.6719C87.6562 10.1406 88.375 9.69792 89.125 9.34375C89.875 8.98958 90.6354 8.77604 91.4062 8.70312V8.98438C90.7708 9.17188 90.1615 9.46354 89.5781 9.85938C88.9948 10.2448 88.4479 10.6927 87.9375 11.2031C87.4271 11.7135 86.9635 12.2604 86.5469 12.8438C86.1302 13.4167 85.7708 13.9844 85.4688 14.5469C85.1667 15.1094 84.9375 15.6458 84.7812 16.1562C84.6146 16.6562 84.5312 17.0781 84.5312 17.4219C84.5312 17.6094 84.5625 17.7656 84.625 17.8906C84.6771 18.0156 84.7552 18.0781 84.8594 18.0781C84.974 18.0781 85.1458 17.9844 85.375 17.7969C85.5938 17.6094 85.849 17.3594 86.1406 17.0469C86.4323 16.724 86.75 16.3594 87.0938 15.9531C87.4375 15.5365 87.7865 15.1042 88.1406 14.6562C88.4948 14.2083 88.8438 13.7552 89.1875 13.2969C89.5417 12.8385 89.8698 12.4062 90.1719 12C90.6302 11.375 91.0104 10.8594 91.3125 10.4531C91.6146 10.0469 91.875 9.72396 92.0938 9.48438C92.3125 9.23438 92.5104 9.0625 92.6875 8.96875C92.8646 8.875 93.0573 8.82812 93.2656 8.82812C93.4844 8.82812 93.6354 8.88542 93.7188 9C93.8021 9.11458 93.8438 9.25521 93.8438 9.42188C93.8438 9.55729 93.8229 9.69792 93.7812 9.84375C93.75 9.98958 93.7083 10.1198 93.6562 10.2344C93.6146 10.3281 93.5208 10.5521 93.375 10.9062C93.2396 11.25 93.0729 11.6667 92.875 12.1562C92.6771 12.6354 92.4635 13.151 92.2344 13.7031C92.0156 14.2552 91.8021 14.7812 91.5938 15.2812C91.3958 15.7708 91.2188 16.2083 91.0625 16.5938C90.9062 16.9688 90.8021 17.2188 90.75 17.3438ZM110.594 18.3438C110.198 18.9583 109.844 19.3906 109.531 19.6406C109.219 19.8906 108.917 20.0156 108.625 20.0156C108.146 20.0156 107.906 19.7865 107.906 19.3281C107.906 19.0885 107.964 18.7917 108.078 18.4375C108.203 18.0833 108.37 17.6562 108.578 17.1562L111.344 10.6719C111.375 10.599 111.391 10.5417 111.391 10.5C111.391 10.4062 111.359 10.3438 111.297 10.3125C111.234 10.2708 111.177 10.25 111.125 10.25C111.01 10.25 110.906 10.2917 110.812 10.375C110.719 10.4583 110.63 10.5625 110.547 10.6875L105.5 18.3438C105.094 18.9479 104.734 19.3802 104.422 19.6406C104.12 19.8906 103.823 20.0156 103.531 20.0156C103.052 20.0156 102.812 19.7865 102.812 19.3281C102.812 19.0885 102.875 18.7917 103 18.4375C103.115 18.0833 103.276 17.6562 103.484 17.1562L106.078 11.0469C106.109 10.974 106.125 10.9167 106.125 10.875C106.125 10.8125 106.104 10.7708 106.062 10.75C106.031 10.7188 105.99 10.7031 105.938 10.7031C105.833 10.7031 105.74 10.7604 105.656 10.875L102.562 14.7031L102.172 14.3906L105.688 10.0469C105.958 9.71354 106.24 9.42188 106.531 9.17188C106.833 8.91146 107.146 8.78125 107.469 8.78125C107.771 8.78125 107.99 8.86458 108.125 9.03125C108.26 9.1875 108.328 9.36458 108.328 9.5625C108.328 9.76042 108.292 9.98438 108.219 10.2344C108.146 10.4844 108.052 10.7448 107.938 11.0156L105.766 16.125C105.703 16.2708 105.672 16.3854 105.672 16.4688C105.672 16.5729 105.714 16.625 105.797 16.625C105.911 16.625 106.036 16.5208 106.172 16.3125L109.594 11.0625C109.875 10.625 110.125 10.2604 110.344 9.96875C110.573 9.67708 110.797 9.44271 111.016 9.26562C111.234 9.08854 111.458 8.96354 111.688 8.89062C111.917 8.81771 112.182 8.78125 112.484 8.78125C112.786 8.78125 113.016 8.86458 113.172 9.03125C113.339 9.1875 113.422 9.36458 113.422 9.5625C113.422 9.76042 113.385 9.98438 113.312 10.2344C113.24 10.4844 113.146 10.7448 113.031 11.0156L110.859 16.125C110.797 16.2708 110.766 16.3854 110.766 16.4688C110.766 16.5729 110.807 16.625 110.891 16.625C111.005 16.625 111.13 16.5208 111.266 16.3125L114.281 11.4531C114.604 10.9531 114.896 10.5312 115.156 10.1875C115.427 9.83333 115.677 9.54688 115.906 9.32812C116.146 9.10938 116.375 8.95312 116.594 8.85938C116.812 8.75521 117.036 8.70312 117.266 8.70312C117.661 8.70312 117.964 8.78125 118.172 8.9375C118.38 9.09375 118.484 9.32292 118.484 9.625C118.484 9.80208 118.458 9.98958 118.406 10.1875C118.354 10.375 118.302 10.5417 118.25 10.6875L115.531 17.3438C115.49 17.4479 115.453 17.5521 115.422 17.6562C115.391 17.75 115.375 17.8333 115.375 17.9062C115.375 18.0312 115.401 18.1146 115.453 18.1562C115.516 18.1979 115.594 18.2188 115.688 18.2188C115.833 18.2188 116.01 18.1458 116.219 18C116.427 17.8542 116.646 17.6406 116.875 17.3594L119.734 13.8281L120.125 14.1406L116.672 18.4062C116.422 18.7188 116.188 18.9792 115.969 19.1875C115.75 19.3958 115.542 19.5625 115.344 19.6875C115.156 19.8021 114.964 19.8854 114.766 19.9375C114.578 19.9896 114.385 20.0156 114.188 20.0156C113.875 20.0156 113.615 19.9271 113.406 19.75C113.198 19.5625 113.094 19.3281 113.094 19.0469C113.094 18.7865 113.156 18.4792 113.281 18.125C113.406 17.7708 113.578 17.3385 113.797 16.8281L116.328 10.8438C116.359 10.7708 116.375 10.6927 116.375 10.6094C116.375 10.5156 116.344 10.4427 116.281 10.3906C116.219 10.3281 116.146 10.2969 116.062 10.2969C115.979 10.2969 115.885 10.3281 115.781 10.3906C115.677 10.4531 115.583 10.5521 115.5 10.6875L110.594 18.3438ZM121.703 19.375C122.078 19.375 122.484 19.2917 122.922 19.125C123.37 18.9583 123.87 18.6719 124.422 18.2656C124.984 17.8594 125.604 17.3125 126.281 16.625C126.958 15.9271 127.719 15.0521 128.562 14L128.953 14.3125C128.234 15.2292 127.573 16.0104 126.969 16.6562C126.365 17.2917 125.812 17.8229 125.312 18.25C124.812 18.6667 124.359 18.9948 123.953 19.2344C123.557 19.4635 123.203 19.6354 122.891 19.75C122.578 19.8646 122.302 19.9375 122.062 19.9688C121.823 19.9896 121.62 20 121.453 20C121.203 20 120.922 19.9635 120.609 19.8906C120.297 19.8177 120.005 19.6875 119.734 19.5C119.464 19.3021 119.24 19.0365 119.062 18.7031C118.875 18.3698 118.781 17.9375 118.781 17.4062C118.781 16.625 118.911 15.8698 119.172 15.1406C119.422 14.4115 119.755 13.7292 120.172 13.0938C120.589 12.4479 121.057 11.8594 121.578 11.3281C122.109 10.7969 122.646 10.3438 123.188 9.96875C123.74 9.58333 124.271 9.28646 124.781 9.07812C125.292 8.86979 125.74 8.76562 126.125 8.76562C126.677 8.76562 127.073 8.93229 127.312 9.26562C127.562 9.58854 127.688 10.0052 127.688 10.5156C127.688 10.9844 127.583 11.4375 127.375 11.875C127.167 12.3125 126.891 12.7292 126.547 13.125C126.203 13.5104 125.802 13.8698 125.344 14.2031C124.896 14.526 124.422 14.8073 123.922 15.0469C123.432 15.276 122.932 15.4583 122.422 15.5938C121.922 15.7292 121.453 15.7969 121.016 15.7969C120.88 16.1927 120.776 16.5677 120.703 16.9219C120.62 17.276 120.578 17.6042 120.578 17.9062C120.578 18.4688 120.688 18.8542 120.906 19.0625C121.125 19.2708 121.391 19.375 121.703 19.375ZM125.609 9.40625C125.328 9.40625 124.99 9.58854 124.594 9.95312C124.198 10.3073 123.786 10.7708 123.359 11.3438C122.943 11.9167 122.536 12.5573 122.141 13.2656C121.755 13.9635 121.432 14.6615 121.172 15.3594C121.911 15.2344 122.583 14.9844 123.188 14.6094C123.802 14.224 124.323 13.7812 124.75 13.2812C125.188 12.7708 125.521 12.2344 125.75 11.6719C125.99 11.1094 126.109 10.5938 126.109 10.125C126.109 9.84375 126.062 9.65625 125.969 9.5625C125.875 9.45833 125.755 9.40625 125.609 9.40625ZM127.188 19.3125C127.188 19.1562 127.25 18.9688 127.375 18.75C127.5 18.5312 127.656 18.3281 127.844 18.1406C128.031 17.9427 128.229 17.776 128.438 17.6406C128.646 17.4948 128.833 17.4219 129 17.4219C129.208 17.4219 129.333 17.4896 129.375 17.625C129.406 17.75 129.417 17.8906 129.406 18.0469C129.385 18.2031 129.375 18.349 129.375 18.4844C129.375 18.6094 129.453 18.6719 129.609 18.6719C130.047 18.6719 130.453 18.4844 130.828 18.1094C131.203 17.7344 131.526 17.2552 131.797 16.6719C132.078 16.0885 132.297 15.4375 132.453 14.7188C132.609 13.9896 132.688 13.2812 132.688 12.5938C132.688 12 132.625 11.5156 132.5 11.1406C132.385 10.7552 132.255 10.4271 132.109 10.1562C131.755 10.6667 131.292 11.2917 130.719 12.0312C130.156 12.7708 129.438 13.6979 128.562 14.8125L128.172 14.5C129.005 13.4375 129.719 12.5208 130.312 11.75C130.906 10.9688 131.417 10.2708 131.844 9.65625C131.792 9.54167 131.745 9.4375 131.703 9.34375C131.672 9.23958 131.656 9.13542 131.656 9.03125C131.656 8.79167 131.724 8.54688 131.859 8.29688C131.995 8.03646 132.167 7.80208 132.375 7.59375C132.583 7.38542 132.812 7.21875 133.062 7.09375C133.323 6.95833 133.573 6.89062 133.812 6.89062C133.938 6.89062 134.073 6.92708 134.219 7C134.365 7.0625 134.438 7.20312 134.438 7.42188C134.438 7.49479 134.401 7.59375 134.328 7.71875C134.255 7.84375 134.172 7.97396 134.078 8.10938C133.995 8.24479 133.917 8.375 133.844 8.5C133.771 8.625 133.734 8.72396 133.734 8.79688C133.734 8.88021 133.766 9.01562 133.828 9.20312C133.901 9.39062 133.974 9.63021 134.047 9.92188C134.13 10.2135 134.203 10.5521 134.266 10.9375C134.339 11.3125 134.375 11.7344 134.375 12.2031C134.375 12.7865 134.302 13.3698 134.156 13.9531C134.01 14.526 133.812 15.0833 133.562 15.625C133.312 16.1562 133.016 16.6615 132.672 17.1406C132.328 17.6198 131.958 18.0469 131.562 18.4219C132.344 17.9948 133.167 17.4167 134.031 16.6875C134.896 15.9583 135.776 15.026 136.672 13.8906L137.062 14.2031C136.438 15.0052 135.792 15.7188 135.125 16.3438C134.458 16.9688 133.792 17.5156 133.125 17.9844C132.458 18.4531 131.797 18.8438 131.141 19.1562C130.495 19.4583 129.875 19.6875 129.281 19.8438C129.104 19.8958 128.932 19.9375 128.766 19.9688C128.589 19.9896 128.411 20 128.234 20C128.12 20 128 19.9948 127.875 19.9844C127.75 19.9635 127.635 19.9271 127.531 19.875C127.427 19.8229 127.344 19.7552 127.281 19.6719C127.219 19.5781 127.188 19.4583 127.188 19.3125ZM135.188 19.3125C135.188 19.1562 135.25 18.9688 135.375 18.75C135.5 18.5312 135.656 18.3281 135.844 18.1406C136.031 17.9427 136.229 17.776 136.438 17.6406C136.646 17.4948 136.833 17.4219 137 17.4219C137.208 17.4219 137.333 17.4896 137.375 17.625C137.406 17.75 137.417 17.8906 137.406 18.0469C137.385 18.2031 137.375 18.349 137.375 18.4844C137.375 18.6094 137.453 18.6719 137.609 18.6719C138.047 18.6719 138.453 18.4844 138.828 18.1094C139.203 17.7344 139.526 17.2552 139.797 16.6719C140.078 16.0885 140.297 15.4375 140.453 14.7188C140.609 13.9896 140.688 13.2812 140.688 12.5938C140.688 12 140.625 11.5156 140.5 11.1406C140.385 10.7552 140.255 10.4271 140.109 10.1562C139.755 10.6667 139.292 11.2917 138.719 12.0312C138.156 12.7708 137.438 13.6979 136.562 14.8125L136.172 14.5C137.005 13.4375 137.719 12.5208 138.312 11.75C138.906 10.9688 139.417 10.2708 139.844 9.65625C139.792 9.54167 139.745 9.4375 139.703 9.34375C139.672 9.23958 139.656 9.13542 139.656 9.03125C139.656 8.79167 139.724 8.54688 139.859 8.29688C139.995 8.03646 140.167 7.80208 140.375 7.59375C140.583 7.38542 140.812 7.21875 141.062 7.09375C141.323 6.95833 141.573 6.89062 141.812 6.89062C141.938 6.89062 142.073 6.92708 142.219 7C142.365 7.0625 142.438 7.20312 142.438 7.42188C142.438 7.49479 142.401 7.59375 142.328 7.71875C142.255 7.84375 142.172 7.97396 142.078 8.10938C141.995 8.24479 141.917 8.375 141.844 8.5C141.771 8.625 141.734 8.72396 141.734 8.79688C141.734 8.88021 141.766 9.01562 141.828 9.20312C141.901 9.39062 141.974 9.63021 142.047 9.92188C142.13 10.2135 142.203 10.5521 142.266 10.9375C142.339 11.3125 142.375 11.7344 142.375 12.2031C142.375 12.7865 142.302 13.3698 142.156 13.9531C142.01 14.526 141.812 15.0833 141.562 15.625C141.312 16.1562 141.016 16.6615 140.672 17.1406C140.328 17.6198 139.958 18.0469 139.562 18.4219C140.344 17.9948 141.167 17.4167 142.031 16.6875C142.896 15.9583 143.776 15.026 144.672 13.8906L145.062 14.2031C144.438 15.0052 143.792 15.7188 143.125 16.3438C142.458 16.9688 141.792 17.5156 141.125 17.9844C140.458 18.4531 139.797 18.8438 139.141 19.1562C138.495 19.4583 137.875 19.6875 137.281 19.8438C137.104 19.8958 136.932 19.9375 136.766 19.9688C136.589 19.9896 136.411 20 136.234 20C136.12 20 136 19.9948 135.875 19.9844C135.75 19.9635 135.635 19.9271 135.531 19.875C135.427 19.8229 135.344 19.7552 135.281 19.6719C135.219 19.5781 135.188 19.4583 135.188 19.3125ZM151.469 17.3438C151.427 17.4375 151.391 17.5365 151.359 17.6406C151.328 17.7448 151.312 17.8333 151.312 17.9062C151.312 18.0312 151.339 18.1146 151.391 18.1562C151.453 18.1979 151.531 18.2188 151.625 18.2188C151.771 18.2188 151.948 18.1458 152.156 18C152.365 17.8542 152.583 17.6406 152.812 17.3594L155.672 13.8281L156.062 14.1406L152.609 18.4062C152.359 18.7188 152.125 18.9792 151.906 19.1875C151.688 19.3958 151.479 19.5625 151.281 19.6875C151.094 19.8021 150.901 19.8854 150.703 19.9375C150.516 19.9896 150.323 20.0156 150.125 20.0156C149.812 20.0156 149.552 19.9271 149.344 19.75C149.135 19.5625 149.031 19.3281 149.031 19.0469C149.031 18.7344 149.089 18.4115 149.203 18.0781C149.328 17.7448 149.505 17.3281 149.734 16.8281C149.818 16.651 149.917 16.4219 150.031 16.1406C150.156 15.849 150.286 15.5469 150.422 15.2344C150.557 14.9115 150.693 14.5885 150.828 14.2656C150.964 13.9427 151.083 13.651 151.188 13.3906C151.292 13.1198 151.375 12.8958 151.438 12.7188C151.51 12.5417 151.547 12.4375 151.547 12.4062C151.547 12.3021 151.51 12.25 151.438 12.25C151.344 12.25 151.245 12.3281 151.141 12.4844C151.078 12.5677 150.953 12.7448 150.766 13.0156C150.578 13.2865 150.349 13.6094 150.078 13.9844C149.807 14.3594 149.516 14.7656 149.203 15.2031C148.891 15.6406 148.578 16.0677 148.266 16.4844C147.953 16.901 147.656 17.2812 147.375 17.625C147.094 17.9688 146.854 18.2396 146.656 18.4375C146.156 18.9375 145.714 19.3333 145.328 19.625C144.943 19.9062 144.562 20.0469 144.188 20.0469C144.062 20.0469 143.927 20.0208 143.781 19.9688C143.625 19.9167 143.484 19.8281 143.359 19.7031C143.224 19.5677 143.115 19.3854 143.031 19.1562C142.948 18.9167 142.906 18.6146 142.906 18.25C142.906 17.7083 143.031 17.1094 143.281 16.4531C143.521 15.7969 143.854 15.1302 144.281 14.4531C144.708 13.7656 145.214 13.0938 145.797 12.4375C146.38 11.7812 147.01 11.1927 147.688 10.6719C148.375 10.1406 149.094 9.69792 149.844 9.34375C150.594 8.98958 151.354 8.77604 152.125 8.70312V8.98438C151.49 9.17188 150.88 9.46354 150.297 9.85938C149.714 10.2448 149.167 10.6927 148.656 11.2031C148.146 11.7135 147.682 12.2604 147.266 12.8438C146.849 13.4167 146.49 13.9844 146.188 14.5469C145.885 15.1094 145.656 15.6458 145.5 16.1562C145.333 16.6562 145.25 17.0781 145.25 17.4219C145.25 17.6094 145.281 17.7656 145.344 17.8906C145.396 18.0156 145.474 18.0781 145.578 18.0781C145.693 18.0781 145.865 17.9844 146.094 17.7969C146.312 17.6094 146.568 17.3594 146.859 17.0469C147.151 16.724 147.469 16.3594 147.812 15.9531C148.156 15.5365 148.505 15.1042 148.859 14.6562C149.214 14.2083 149.562 13.7552 149.906 13.2969C150.26 12.8385 150.589 12.4062 150.891 12C151.349 11.375 151.729 10.8594 152.031 10.4531C152.333 10.0469 152.594 9.72396 152.812 9.48438C153.031 9.23438 153.229 9.0625 153.406 8.96875C153.583 8.875 153.776 8.82812 153.984 8.82812C154.203 8.82812 154.354 8.88542 154.438 9C154.521 9.11458 154.562 9.25521 154.562 9.42188C154.562 9.55729 154.542 9.69792 154.5 9.84375C154.469 9.98958 154.427 10.1198 154.375 10.2344C154.333 10.3281 154.24 10.5521 154.094 10.9062C153.958 11.25 153.792 11.6667 153.594 12.1562C153.396 12.6354 153.182 13.151 152.953 13.7031C152.734 14.2552 152.521 14.7812 152.312 15.2812C152.115 15.7708 151.938 16.2083 151.781 16.5938C151.625 16.9688 151.521 17.2188 151.469 17.3438ZM166.906 14.2969C166.406 14.9219 165.927 15.4948 165.469 16.0156C165.01 16.5365 164.552 17.026 164.094 17.4844C163.646 17.9323 163.193 18.3594 162.734 18.7656C162.276 19.1719 161.797 19.5833 161.297 20L159.797 23.6094C159.464 24.4115 159.12 25.1354 158.766 25.7812C158.422 26.4271 158.052 26.974 157.656 27.4219C157.26 27.8698 156.833 28.2135 156.375 28.4531C155.917 28.6927 155.411 28.8125 154.859 28.8125C154.495 28.8125 154.188 28.75 153.938 28.625C153.688 28.5104 153.484 28.3594 153.328 28.1719C153.172 27.9844 153.062 27.776 153 27.5469C152.927 27.3177 152.891 27.099 152.891 26.8906C152.891 26.2031 153.083 25.5677 153.469 24.9844C153.854 24.4115 154.359 23.8594 154.984 23.3281C155.599 22.7969 156.292 22.2656 157.062 21.7344C157.823 21.2135 158.589 20.6562 159.359 20.0625L162.422 12.6875C162.484 12.5312 162.516 12.4375 162.516 12.4062C162.516 12.3021 162.479 12.25 162.406 12.25C162.312 12.25 162.214 12.3281 162.109 12.4844C162.047 12.5677 161.922 12.7448 161.734 13.0156C161.547 13.2865 161.318 13.6094 161.047 13.9844C160.776 14.3594 160.484 14.7656 160.172 15.2031C159.859 15.6406 159.547 16.0677 159.234 16.4844C158.922 16.901 158.625 17.2812 158.344 17.625C158.062 17.9688 157.823 18.2396 157.625 18.4375C157.125 18.9375 156.682 19.3333 156.297 19.625C155.911 19.9062 155.531 20.0469 155.156 20.0469C155.031 20.0469 154.896 20.0208 154.75 19.9688C154.594 19.9167 154.453 19.8281 154.328 19.7031C154.193 19.5677 154.083 19.3854 154 19.1562C153.917 18.9167 153.875 18.6146 153.875 18.25C153.875 17.7083 154 17.1094 154.25 16.4531C154.49 15.7969 154.823 15.1302 155.25 14.4531C155.677 13.7656 156.182 13.0938 156.766 12.4375C157.349 11.7812 157.979 11.1927 158.656 10.6719C159.344 10.1406 160.062 9.69792 160.812 9.34375C161.562 8.98958 162.323 8.77604 163.094 8.70312V8.98438C162.458 9.17188 161.849 9.46354 161.266 9.85938C160.682 10.2448 160.135 10.6927 159.625 11.2031C159.115 11.7135 158.651 12.2604 158.234 12.8438C157.818 13.4167 157.458 13.9844 157.156 14.5469C156.854 15.1094 156.625 15.6458 156.469 16.1562C156.302 16.6562 156.219 17.0781 156.219 17.4219C156.219 17.6094 156.25 17.7656 156.312 17.8906C156.365 18.0156 156.443 18.0781 156.547 18.0781C156.661 18.0781 156.833 17.9844 157.062 17.7969C157.281 17.6094 157.536 17.3594 157.828 17.0469C158.12 16.724 158.438 16.3594 158.781 15.9531C159.125 15.5365 159.474 15.1042 159.828 14.6562C160.182 14.2083 160.531 13.7552 160.875 13.2969C161.229 12.8385 161.557 12.4062 161.859 12C162.318 11.375 162.698 10.8594 163 10.4531C163.312 10.0469 163.578 9.72396 163.797 9.48438C164.026 9.23438 164.229 9.0625 164.406 8.96875C164.583 8.875 164.776 8.82812 164.984 8.82812C165.203 8.82812 165.354 8.88542 165.438 9C165.521 9.11458 165.562 9.25521 165.562 9.42188C165.562 9.55729 165.542 9.69792 165.5 9.84375C165.469 9.98958 165.427 10.1198 165.375 10.2344L161.75 18.9219C162.438 18.3281 163.172 17.6354 163.953 16.8438C164.745 16.0417 165.599 15.0885 166.516 13.9844L166.906 14.2969ZM158.969 21.0156C158.135 21.6198 157.38 22.1615 156.703 22.6406C156.026 23.1302 155.453 23.5938 154.984 24.0312C154.505 24.4792 154.141 24.9323 153.891 25.3906C153.63 25.849 153.5 26.3542 153.5 26.9062C153.5 27.0521 153.521 27.2031 153.562 27.3594C153.604 27.5156 153.672 27.6562 153.766 27.7812C153.849 27.9062 153.964 28.0052 154.109 28.0781C154.255 28.1615 154.432 28.2031 154.641 28.2031C155.161 28.2031 155.641 27.9115 156.078 27.3281C156.505 26.7448 156.922 25.9635 157.328 24.9844L158.969 21.0156ZM168.578 19.375C168.953 19.375 169.359 19.2917 169.797 19.125C170.245 18.9583 170.745 18.6719 171.297 18.2656C171.859 17.8594 172.479 17.3125 173.156 16.625C173.833 15.9271 174.594 15.0521 175.438 14L175.828 14.3125C175.109 15.2292 174.448 16.0104 173.844 16.6562C173.24 17.2917 172.688 17.8229 172.188 18.25C171.688 18.6667 171.234 18.9948 170.828 19.2344C170.432 19.4635 170.078 19.6354 169.766 19.75C169.453 19.8646 169.177 19.9375 168.938 19.9688C168.698 19.9896 168.495 20 168.328 20C168.078 20 167.797 19.9635 167.484 19.8906C167.172 19.8177 166.88 19.6875 166.609 19.5C166.339 19.3021 166.115 19.0365 165.938 18.7031C165.75 18.3698 165.656 17.9375 165.656 17.4062C165.656 16.625 165.786 15.8698 166.047 15.1406C166.297 14.4115 166.63 13.7292 167.047 13.0938C167.464 12.4479 167.932 11.8594 168.453 11.3281C168.984 10.7969 169.521 10.3438 170.062 9.96875C170.615 9.58333 171.146 9.28646 171.656 9.07812C172.167 8.86979 172.615 8.76562 173 8.76562C173.552 8.76562 173.948 8.93229 174.188 9.26562C174.438 9.58854 174.562 10.0052 174.562 10.5156C174.562 10.9844 174.458 11.4375 174.25 11.875C174.042 12.3125 173.766 12.7292 173.422 13.125C173.078 13.5104 172.677 13.8698 172.219 14.2031C171.771 14.526 171.297 14.8073 170.797 15.0469C170.307 15.276 169.807 15.4583 169.297 15.5938C168.797 15.7292 168.328 15.7969 167.891 15.7969C167.755 16.1927 167.651 16.5677 167.578 16.9219C167.495 17.276 167.453 17.6042 167.453 17.9062C167.453 18.4688 167.562 18.8542 167.781 19.0625C168 19.2708 168.266 19.375 168.578 19.375ZM172.484 9.40625C172.203 9.40625 171.865 9.58854 171.469 9.95312C171.073 10.3073 170.661 10.7708 170.234 11.3438C169.818 11.9167 169.411 12.5573 169.016 13.2656C168.63 13.9635 168.307 14.6615 168.047 15.3594C168.786 15.2344 169.458 14.9844 170.062 14.6094C170.677 14.224 171.198 13.7812 171.625 13.2812C172.062 12.7708 172.396 12.2344 172.625 11.6719C172.865 11.1094 172.984 10.5938 172.984 10.125C172.984 9.84375 172.938 9.65625 172.844 9.5625C172.75 9.45833 172.63 9.40625 172.484 9.40625Z" fill="#1B1401"/>
</svg>
