<svg width="317" height="38" viewBox="0 0 317 38" fill="none" xmlns="http://www.w3.org/2000/svg">
<path d="M36.504 37.64C35.8213 37.64 35.2027 37.4907 34.648 37.192C34.0933 36.936 33.816 36.3387 33.816 35.4C33.816 34.5893 34.2427 33.416 35.096 31.88C35.9493 30.344 37.1013 28.5947 38.552 26.632C40.0027 24.6267 41.6027 22.536 43.352 20.36C45.144 18.184 46.9787 16.072 48.856 14.024C50.7333 11.9333 52.5253 10.0133 54.232 8.264C55.9387 6.472 57.4533 4.97866 58.776 3.784C60.0987 2.58933 61.08 1.84266 61.72 1.544C61.9333 1.45866 62.0827 1.45866 62.168 1.544C62.2533 1.58666 62.1467 1.672 61.848 1.8C60.568 2.39733 59.0107 3.42133 57.176 4.872C55.384 6.28 53.4213 7.96533 51.288 9.928C49.1973 11.8907 47.0427 13.9813 44.824 16.2C42.6053 18.4187 40.4507 20.6373 38.36 22.856C36.312 25.032 34.392 27.08 32.6 29C30.8507 30.8773 29.3573 32.4987 28.12 33.864C26.8827 35.2293 26.0293 36.168 25.56 36.68C25.0053 37.2347 24.536 37.448 24.152 37.32C23.768 37.192 23.576 36.7227 23.576 35.912C23.576 34.8027 23.9173 33.416 24.6 31.752C25.2827 30.088 26.2 28.2747 27.352 26.312C28.504 24.3493 29.784 22.344 31.192 20.296C32.6 18.248 34.008 16.264 35.416 14.344C36.8667 12.3813 38.232 10.6107 39.512 9.032C40.8347 7.45333 41.944 6.152 42.84 5.128C43.7787 4.06133 44.3973 3.4 44.696 3.144C44.8667 3.016 45.144 2.93067 45.528 2.888C45.912 2.84533 45.9333 2.93066 45.592 3.144C44.7387 3.57066 43.5653 4.50933 42.072 5.96C40.5787 7.41066 38.872 9.18133 36.952 11.272C35.032 13.32 32.9627 15.5387 30.744 17.928C28.568 20.3173 26.3067 22.664 23.96 24.968C21.6133 27.272 19.288 29.384 16.984 31.304C14.7227 33.1813 12.5467 34.696 10.456 35.848C8.36533 37 6.46667 37.576 4.76 37.576C3.05333 37.576 1.85867 37.2773 1.176 36.68C0.493333 36.04 0.151999 35.4 0.151999 34.76C0.151999 33.9067 0.386666 33.288 0.856 32.904C1.32533 32.4773 1.77333 32.264 2.2 32.264C3.18133 32.264 3.672 32.6053 3.672 33.288C3.672 33.8 3.50133 34.1627 3.16 34.376C2.81867 34.5467 2.54133 34.632 2.328 34.632C1.944 34.632 1.64533 34.5893 1.432 34.504C1.21867 34.376 1.112 34.312 1.112 34.312C1.112 34.3973 1.15467 34.6533 1.24 35.08C1.28267 35.5067 1.56 35.9333 2.072 36.36C2.54133 36.744 3.39467 36.936 4.632 36.936C6.38133 36.936 8.32267 36.3173 10.456 35.08C12.632 33.8 14.9147 32.136 17.304 30.088C19.736 28.04 22.168 25.7787 24.6 23.304C27.0747 20.7867 29.464 18.2693 31.768 15.752C34.072 13.2347 36.2267 10.9093 38.232 8.776C40.2373 6.64267 41.9867 4.89333 43.48 3.528C44.9733 2.12 46.104 1.33066 46.872 1.16C47.4693 1.032 47.768 1.032 47.768 1.16C47.768 1.288 47.6613 1.45866 47.448 1.672C46.8933 2.09866 46.1253 2.952 45.144 4.232C44.1627 5.46933 43.0533 7.00533 41.816 8.84C40.5787 10.632 39.256 12.5947 37.848 14.728C36.4827 16.8613 35.1173 19.016 33.752 21.192C32.3867 23.368 31.1067 25.4587 29.912 27.464C28.76 29.4267 27.7573 31.176 26.904 32.712C26.0507 34.248 25.4533 35.4213 25.112 36.232C25.0693 36.3173 24.8987 36.4453 24.6 36.616C24.3013 36.7867 24.1733 36.8507 24.216 36.808C24.2587 36.7653 24.728 36.232 25.624 35.208C26.52 34.184 27.7147 32.84 29.208 31.176C30.744 29.4693 32.4933 27.592 34.456 25.544C36.4187 23.4533 38.488 21.2987 40.664 19.08C42.84 16.8613 44.9947 14.7067 47.128 12.616C49.304 10.4827 51.3733 8.584 53.336 6.92C55.2987 5.21333 57.0267 3.82666 58.52 2.76C60.056 1.69333 61.2507 1.11733 62.104 1.032C62.5733 0.946665 62.7867 1.01067 62.744 1.224C62.744 1.39467 62.6587 1.52267 62.488 1.608C61.5493 2.16267 60.376 3.18667 58.968 4.68C57.56 6.13067 56.024 7.85867 54.36 9.864C52.696 11.8693 50.9893 14.0027 49.24 16.264C47.4907 18.5253 45.8053 20.7653 44.184 22.984C42.6053 25.2027 41.176 27.2507 39.896 29.128C38.6587 30.9627 37.656 32.4987 36.888 33.736C36.1627 34.9307 35.8 35.656 35.8 35.912C35.8 36.2107 35.9493 36.4667 36.248 36.68C36.5893 36.8933 36.9733 37 37.4 37C38.3813 37 39.3413 36.7653 40.28 36.296C41.2613 35.8267 42.0933 35.3573 42.776 34.888C43.4587 34.376 43.8213 34.0987 43.864 34.056C44.0773 33.7573 44.2907 33.7787 44.504 34.12C44.7173 34.4613 44.5893 34.7387 44.12 34.952C44.12 34.952 43.736 35.1867 42.968 35.656C42.2427 36.0827 41.304 36.5307 40.152 37C39 37.4267 37.784 37.64 36.504 37.64ZM65.827 25.8C65.6563 26.1413 65.4003 26.44 65.059 26.696C64.7603 26.952 64.5257 27.1227 64.355 27.208C64.227 27.2507 64.2697 27.1227 64.483 26.824C65.251 25.8853 65.7417 25.0107 65.955 24.2C66.211 23.3893 66.211 22.7493 65.955 22.28C65.7417 21.768 65.315 21.512 64.675 21.512C63.8217 21.512 62.819 21.8533 61.667 22.536C60.515 23.2187 59.3203 24.1147 58.083 25.224C56.8883 26.3333 55.7577 27.528 54.691 28.808C53.667 30.0453 52.835 31.2613 52.195 32.456C51.555 33.608 51.235 34.6107 51.235 35.464C51.235 36.104 51.363 36.5093 51.619 36.68C51.875 36.8507 52.131 36.936 52.387 36.936C53.3683 36.936 54.499 36.488 55.779 35.592C57.1017 34.6533 58.4457 33.48 59.811 32.072C61.1763 30.664 62.4777 29.2347 63.715 27.784C64.9523 26.2907 66.019 24.9467 66.915 23.752C67.8537 22.5573 68.4937 21.7467 68.835 21.32C69.3043 21.4907 69.859 21.5547 70.499 21.512C71.1817 21.4693 71.7577 21.4267 72.227 21.384C72.1417 21.512 71.6937 22.0453 70.883 22.984C70.115 23.9227 69.1763 25.0533 68.067 26.376C67.0003 27.656 65.9123 28.9787 64.803 30.344C63.7363 31.7093 62.8403 32.904 62.115 33.928C61.3897 34.952 61.027 35.6347 61.027 35.976C61.027 36.4027 61.1123 36.68 61.283 36.808C61.4963 36.8933 61.8163 36.936 62.243 36.936C62.755 36.8933 63.5017 36.6587 64.483 36.232C65.4643 35.7627 66.723 34.8667 68.259 33.544C69.795 32.2213 71.651 30.2587 73.827 27.656C73.827 27.656 73.9123 27.72 74.083 27.848C74.2963 27.976 74.403 28.04 74.403 28.04C71.843 31.0267 69.475 33.3733 67.299 35.08C65.123 36.744 63.139 37.576 61.347 37.576C60.4083 37.576 59.7683 37.4267 59.427 37.128C59.1283 36.8293 58.979 36.4027 58.979 35.848C58.979 35.4213 59.1497 34.9093 59.491 34.312C59.875 33.672 60.3017 33.0533 60.771 32.456C61.2403 31.8587 61.6243 31.3893 61.923 31.048C61.923 31.048 61.8803 31.0267 61.795 30.984C61.7097 30.9413 61.667 30.92 61.667 30.92C60.6857 32.1147 59.6403 33.224 58.531 34.248C57.4217 35.272 56.3123 36.0827 55.203 36.68C54.1363 37.2773 53.091 37.576 52.067 37.576C51.0003 37.576 50.2537 37.32 49.827 36.808C49.4003 36.2533 49.187 35.4213 49.187 34.312C49.187 33.2453 49.5283 31.9653 50.211 30.472C50.8937 28.936 51.875 27.4427 53.155 25.992C54.435 24.4987 55.971 23.2613 57.763 22.28C59.5977 21.2987 61.6457 20.808 63.907 20.808C65.0163 20.808 65.7843 21.0213 66.211 21.448C66.6377 21.832 66.8297 22.3013 66.787 22.856C66.7443 23.4107 66.6163 23.9653 66.403 24.52C66.1897 25.0747 65.9977 25.5013 65.827 25.8ZM73.8125 28.616C73.6418 28.7867 73.5138 28.808 73.4285 28.68C73.3432 28.5093 73.3218 28.3387 73.3645 28.168C74.0898 27.4427 74.7938 26.5893 75.4765 25.608C76.2018 24.6267 76.7992 23.7093 77.2685 22.856C77.7805 22.0027 78.0792 21.4267 78.1645 21.128C78.2498 21.128 78.3778 21.064 78.5485 20.936C78.7618 20.808 78.9538 20.7653 79.1245 20.808C79.0818 21.1067 79.0178 21.384 78.9325 21.64C78.8898 21.896 79.0392 22.1307 79.3805 22.344C79.7218 22.5573 80.4258 22.7707 81.4925 22.984C82.5592 23.1973 84.1805 23.432 86.3565 23.688C86.5698 23.7307 86.7192 23.816 86.8045 23.944C86.9325 24.0293 86.8685 24.1787 86.6125 24.392C85.8018 25.032 84.9058 25.8427 83.9245 26.824C82.9432 27.8053 81.9832 28.8507 81.0445 29.96C80.1485 31.0267 79.4018 32.072 78.8045 33.096C78.2498 34.12 77.9725 34.9733 77.9725 35.656C77.9725 36.424 78.3138 36.808 78.9965 36.808C79.8498 36.808 80.8098 36.4667 81.8765 35.784C82.9858 35.1013 84.0952 34.2693 85.2045 33.288C86.3138 32.264 87.3378 31.24 88.2765 30.216C89.2578 29.1493 90.0685 28.2747 90.7085 27.592L91.2205 27.976C90.6232 28.5733 89.8552 29.4053 88.9165 30.472C87.9778 31.5387 86.9112 32.6267 85.7165 33.736C84.5645 34.8027 83.3272 35.72 82.0045 36.488C80.6818 37.2133 79.3165 37.576 77.9085 37.576C77.0978 37.576 76.3725 37.384 75.7325 37C75.0925 36.6587 74.7725 36.0187 74.7725 35.08C74.7725 34.184 75.1565 33.2453 75.9245 32.264C76.6925 31.2827 77.6525 30.3013 78.8045 29.32C79.9565 28.296 81.1512 27.336 82.3885 26.44C83.6685 25.5013 84.7992 24.648 85.7805 23.88L86.2285 24.456C85.8018 24.2853 85.0552 24.136 83.9885 24.008C82.9218 23.8373 81.8125 23.624 80.6605 23.368C79.5085 23.0693 78.5058 22.6853 77.6525 22.216C76.8418 21.7467 76.4365 21.1067 76.4365 20.296C76.4365 19.8693 76.6072 19.3573 76.9485 18.76C77.3325 18.12 77.8445 17.8 78.4845 17.8C79.0818 17.8 79.4872 17.928 79.7005 18.184C79.9138 18.3973 80.0205 18.696 80.0205 19.08C80.0205 19.336 79.8072 19.8693 79.3805 20.68C78.9538 21.448 78.4205 22.3653 77.7805 23.432C77.1405 24.456 76.4578 25.4373 75.7325 26.376C75.0498 27.3147 74.4098 28.0613 73.8125 28.616ZM89.345 37.576C88.7477 37.576 88.0863 37.4053 87.361 37.064C86.593 36.7653 86.209 36.2533 86.209 35.528C86.209 34.632 86.6143 33.5013 87.425 32.136C88.2357 30.7707 89.2383 29.3627 90.433 27.912C91.585 26.4613 92.7157 25.096 93.825 23.816C94.9343 22.536 95.7663 21.5333 96.321 20.808C96.7903 20.8507 97.345 20.872 97.985 20.872C98.6677 20.872 99.265 20.8507 99.777 20.808C99.1797 21.5333 98.3903 22.4507 97.409 23.56C96.4703 24.6693 95.4677 25.864 94.401 27.144C93.377 28.3813 92.3743 29.5973 91.393 30.792C90.4543 31.9867 89.6863 33.0533 89.089 33.992C88.4917 34.9307 88.193 35.6133 88.193 36.04C88.193 36.3387 88.321 36.552 88.577 36.68C88.833 36.808 89.2597 36.872 89.857 36.872C90.881 36.872 92.0117 36.488 93.249 35.72C94.529 34.9093 95.7663 33.9493 96.961 32.84C98.1557 31.7307 99.2223 30.6853 100.161 29.704C101.1 28.68 101.761 27.9333 102.145 27.464L102.657 27.912C102.273 28.3387 101.612 29.0853 100.673 30.152C99.777 31.176 98.689 32.264 97.409 33.416C96.1717 34.568 94.849 35.5493 93.441 36.36C92.0757 37.1707 90.7103 37.576 89.345 37.576ZM102.145 15.944C101.633 15.944 101.249 15.7947 100.993 15.496C100.737 15.1547 100.609 14.7707 100.609 14.344C100.609 13.8747 100.865 13.384 101.377 12.872C101.889 12.36 102.422 12.104 102.977 12.104C103.574 12.104 104.001 12.2747 104.257 12.616C104.513 12.9147 104.641 13.2133 104.641 13.512C104.641 14.152 104.385 14.728 103.873 15.24C103.361 15.7093 102.785 15.944 102.145 15.944ZM115.567 37.576C113.305 37.576 112.175 36.9147 112.175 35.592C112.175 34.7387 112.452 33.8213 113.007 32.84C113.604 31.8587 114.329 30.8773 115.183 29.896C116.036 28.872 116.889 27.8693 117.743 26.888C118.639 25.9067 119.364 25.0107 119.919 24.2C120.516 23.3467 120.815 22.6213 120.815 22.024C120.815 21.8107 120.708 21.64 120.495 21.512C120.324 21.3413 120.068 21.256 119.727 21.256C119.215 21.256 118.489 21.512 117.551 22.024C116.655 22.536 115.503 23.4107 114.095 24.648C112.729 25.8427 111.108 27.464 109.231 29.512C107.353 31.5173 105.199 34.0347 102.767 37.064C102.383 36.9787 101.806 36.936 101.038 36.936C100.27 36.936 99.6092 37.0213 99.0545 37.192C100.292 35.4 101.508 33.6507 102.703 31.944C103.897 30.2373 104.985 28.68 105.967 27.272C106.991 25.864 107.801 24.712 108.399 23.816C108.996 22.8773 109.295 22.3013 109.295 22.088C109.295 21.704 109.103 21.512 108.719 21.512C108.292 21.512 107.759 21.8533 107.119 22.536C106.479 23.176 105.775 24.008 105.007 25.032C104.239 26.0133 103.449 27.016 102.639 28.04L102.062 27.656C102.916 26.6747 103.748 25.6507 104.559 24.584C105.369 23.5173 106.201 22.6 107.055 21.832C107.908 21.064 108.804 20.68 109.743 20.68C110.212 20.68 110.639 20.808 111.023 21.064C111.449 21.2773 111.663 21.64 111.663 22.152C111.663 22.6213 111.471 23.1973 111.087 23.88C110.745 24.52 110.276 25.2667 109.679 26.12C109.081 26.9307 108.399 27.848 107.631 28.872C106.905 29.8533 106.137 30.92 105.327 32.072L105.391 32.456C107.652 29.9813 109.551 27.976 111.087 26.44C112.665 24.904 113.967 23.7307 114.991 22.92C116.057 22.0667 116.975 21.4907 117.743 21.192C118.553 20.8507 119.321 20.68 120.047 20.68C121.028 20.68 121.732 20.8933 122.159 21.32C122.585 21.704 122.799 22.2373 122.799 22.92C122.799 23.944 122.5 25.032 121.903 26.184C121.305 27.2933 120.559 28.4027 119.663 29.512C118.809 30.5787 117.935 31.5813 117.039 32.52C116.185 33.416 115.46 34.184 114.863 34.824C114.265 35.464 113.967 35.8907 113.967 36.104C113.967 36.36 114.031 36.552 114.159 36.68C114.329 36.808 114.735 36.872 115.375 36.872C116.953 36.872 118.447 36.3813 119.855 35.4C121.305 34.4187 122.692 33.224 124.015 31.816C125.337 30.3653 126.575 28.936 127.727 27.528L128.239 27.976C127.087 29.3413 125.828 30.7707 124.463 32.264C123.097 33.7573 121.668 35.016 120.175 36.04C118.681 37.064 117.145 37.576 115.567 37.576ZM141.577 25.8C141.406 26.1413 141.15 26.44 140.809 26.696C140.51 26.952 140.276 27.1227 140.105 27.208C139.977 27.2507 140.02 27.1227 140.233 26.824C141.001 25.8853 141.492 25.0107 141.705 24.2C141.961 23.3893 141.961 22.7493 141.705 22.28C141.492 21.768 141.065 21.512 140.425 21.512C139.572 21.512 138.569 21.8533 137.417 22.536C136.265 23.2187 135.07 24.1147 133.833 25.224C132.638 26.3333 131.508 27.528 130.441 28.808C129.417 30.0453 128.585 31.2613 127.945 32.456C127.305 33.608 126.985 34.6107 126.985 35.464C126.985 36.104 127.113 36.5093 127.369 36.68C127.625 36.8507 127.881 36.936 128.137 36.936C129.118 36.936 130.249 36.488 131.529 35.592C132.852 34.6533 134.196 33.48 135.561 32.072C136.926 30.664 138.228 29.2347 139.465 27.784C140.702 26.2907 141.769 24.9467 142.665 23.752C143.604 22.5573 144.244 21.7467 144.585 21.32C145.054 21.4907 145.609 21.5547 146.249 21.512C146.932 21.4693 147.508 21.4267 147.977 21.384C147.892 21.512 147.444 22.0453 146.633 22.984C145.865 23.9227 144.926 25.0533 143.817 26.376C142.75 27.656 141.662 28.9787 140.553 30.344C139.486 31.7093 138.59 32.904 137.865 33.928C137.14 34.952 136.777 35.6347 136.777 35.976C136.777 36.4027 136.862 36.68 137.033 36.808C137.246 36.8933 137.566 36.936 137.993 36.936C138.505 36.8933 139.252 36.6587 140.233 36.232C141.214 35.7627 142.473 34.8667 144.009 33.544C145.545 32.2213 147.401 30.2587 149.577 27.656C149.577 27.656 149.662 27.72 149.833 27.848C150.046 27.976 150.153 28.04 150.153 28.04C147.593 31.0267 145.225 33.3733 143.049 35.08C140.873 36.744 138.889 37.576 137.097 37.576C136.158 37.576 135.518 37.4267 135.177 37.128C134.878 36.8293 134.729 36.4027 134.729 35.848C134.729 35.4213 134.9 34.9093 135.241 34.312C135.625 33.672 136.052 33.0533 136.521 32.456C136.99 31.8587 137.374 31.3893 137.673 31.048C137.673 31.048 137.63 31.0267 137.545 30.984C137.46 30.9413 137.417 30.92 137.417 30.92C136.436 32.1147 135.39 33.224 134.281 34.248C133.172 35.272 132.062 36.0827 130.953 36.68C129.886 37.2773 128.841 37.576 127.817 37.576C126.75 37.576 126.004 37.32 125.577 36.808C125.15 36.2533 124.937 35.4213 124.937 34.312C124.937 33.2453 125.278 31.9653 125.961 30.472C126.644 28.936 127.625 27.4427 128.905 25.992C130.185 24.4987 131.721 23.2613 133.513 22.28C135.348 21.2987 137.396 20.808 139.657 20.808C140.766 20.808 141.534 21.0213 141.961 21.448C142.388 21.832 142.58 22.3013 142.537 22.856C142.494 23.4107 142.366 23.9653 142.153 24.52C141.94 25.0747 141.748 25.5013 141.577 25.8ZM195.502 13.128C195.843 12.872 196.057 12.8293 196.142 13C196.227 13.128 196.163 13.2987 195.95 13.512C194.67 14.5787 193.369 15.9227 192.046 17.544C190.723 19.1653 189.422 20.8933 188.142 22.728C186.862 24.5627 185.667 26.3973 184.558 28.232C183.449 30.024 182.489 31.7093 181.678 33.288C180.867 34.824 180.27 36.0827 179.886 37.064C179.374 36.9787 178.755 36.936 178.03 36.936C177.347 36.936 176.643 36.9787 175.918 37.064C176.089 36.808 176.451 36.2107 177.006 35.272C177.603 34.2907 178.243 33.1387 178.926 31.816C179.651 30.4507 180.27 29.0213 180.782 27.528C181.294 25.992 181.55 24.5413 181.55 23.176C181.55 22.3227 181.294 21.4693 180.782 20.616C180.313 19.7627 179.587 19.336 178.606 19.336C177.923 19.336 177.155 19.848 176.302 20.872C175.491 21.896 175.086 23.2827 175.086 25.032C175.086 26.9093 175.47 28.6373 176.238 30.216C177.006 31.752 178.094 32.9893 179.502 33.928C180.91 34.824 182.574 35.272 184.494 35.272C185.987 35.272 187.31 34.9093 188.462 34.184C189.657 33.416 190.574 32.52 191.214 31.496C191.854 30.4293 192.089 29.4267 191.918 28.488C191.662 28.488 191.427 28.424 191.214 28.296C191.001 28.168 190.894 27.9333 190.894 27.592C190.894 27.4213 190.958 27.272 191.086 27.144C191.257 26.9733 191.47 26.888 191.726 26.888C192.451 26.888 192.814 27.5067 192.814 28.744C192.814 29.8533 192.43 30.984 191.662 32.136C190.937 33.2453 189.934 34.1627 188.654 34.888C187.417 35.6133 186.009 35.976 184.43 35.976C182.467 35.976 180.654 35.464 178.99 34.44C177.369 33.416 176.067 32.0507 175.086 30.344C174.147 28.6373 173.678 26.8027 173.678 24.84C173.678 23.7733 173.87 22.7493 174.254 21.768C174.681 20.7867 175.235 19.976 175.918 19.336C176.601 18.696 177.39 18.376 178.286 18.376C179.182 18.376 179.929 18.6533 180.526 19.208C181.123 19.7627 181.571 20.424 181.87 21.192C182.169 21.9173 182.318 22.6 182.318 23.24C182.318 24.2213 182.147 25.3093 181.806 26.504C181.465 27.656 181.059 28.7867 180.59 29.896C180.163 31.0053 179.758 31.9653 179.374 32.776C178.99 33.544 178.734 34.0133 178.606 34.184C178.393 34.5253 178.179 34.7387 177.966 34.824C177.795 34.8667 177.859 34.632 178.158 34.12C178.371 33.6933 178.883 32.8827 179.694 31.688C180.547 30.4507 181.593 29.0213 182.83 27.4C184.067 25.736 185.39 24.0293 186.798 22.28C188.249 20.488 189.721 18.7813 191.214 17.16C192.75 15.5387 194.179 14.1947 195.502 13.128ZM222.562 37.576C221.069 37.576 219.96 37.3627 219.234 36.936C218.509 36.4667 218.04 35.9547 217.826 35.4C217.613 34.8453 217.506 34.4187 217.506 34.12C217.506 33.5653 217.698 33.096 218.082 32.712C218.466 32.328 219 32.136 219.682 32.136C220.024 32.136 220.344 32.2427 220.642 32.456C220.898 32.6267 221.026 32.904 221.026 33.288C221.026 33.7147 220.877 34.0347 220.578 34.248C220.28 34.4187 219.938 34.504 219.554 34.504C219.256 34.504 219 34.4827 218.786 34.44C218.573 34.3547 218.466 34.312 218.466 34.312C218.466 34.8667 218.744 35.4427 219.298 36.04C219.853 36.5947 220.792 36.872 222.114 36.872C224.077 36.872 225.869 36.3173 227.491 35.208C229.112 34.056 230.648 32.584 232.099 30.792C233.549 29 234.979 27.08 236.387 25.032C237.795 22.984 239.267 21.0213 240.803 19.144C242.851 16.6267 244.941 14.28 247.075 12.104C249.208 9.88533 251.384 7.98667 253.603 6.408C255.821 4.78666 258.083 3.656 260.387 3.016C260.728 2.93066 260.92 2.99466 260.963 3.208C261.005 3.42133 260.856 3.57067 260.515 3.656C258.68 4.168 256.888 5.14933 255.139 6.6C253.389 8.05067 251.661 9.82133 249.955 11.912C248.291 13.96 246.605 16.1573 244.899 18.504C243.235 20.808 241.528 23.0907 239.779 25.352C238.072 27.6133 236.301 29.6613 234.467 31.496C232.632 33.3307 230.733 34.8027 228.771 35.912C226.808 37.0213 224.739 37.576 222.562 37.576ZM245.219 23.56C242.701 23.56 240.739 23.2187 239.331 22.536C237.923 21.8533 237.219 20.936 237.219 19.784C237.219 19.1867 237.411 18.7173 237.795 18.376C238.179 17.992 238.605 17.736 239.075 17.608C239.587 17.4373 239.992 17.352 240.291 17.352C240.547 17.352 240.675 17.4373 240.675 17.608C240.675 17.736 240.568 17.8213 240.355 17.864C239.8 17.9493 239.288 18.2267 238.819 18.696C238.392 19.1227 238.179 19.528 238.179 19.912C238.179 20.4667 238.712 21.1067 239.779 21.832C240.888 22.5573 242.595 22.92 244.899 22.92C246.051 22.92 247.373 22.664 248.867 22.152C250.36 21.5973 251.789 20.7867 253.155 19.72C254.563 18.6107 255.715 17.2667 256.611 15.688C257.507 14.0667 257.955 12.1893 257.955 10.056C257.955 7.66666 256.888 5.98133 254.755 5C252.664 3.976 249.784 3.464 246.115 3.464C243.085 3.464 240.205 3.912 237.475 4.808C234.744 5.704 232.312 6.856 230.179 8.264C228.088 9.672 226.424 11.1867 225.187 12.808C223.992 14.4293 223.395 15.9653 223.395 17.416C223.395 18.8667 223.736 19.912 224.419 20.552C225.144 21.192 225.997 21.512 226.979 21.512C228.173 21.512 229.368 21.1493 230.562 20.424C231.8 19.656 232.952 18.696 234.019 17.544C235.085 16.3493 236.045 15.112 236.899 13.832C237.752 12.5093 238.435 11.2933 238.947 10.184C239.459 9.07467 239.736 8.22133 239.779 7.624C239.821 7.19733 239.907 6.984 240.035 6.984C240.205 6.984 240.312 7.13333 240.355 7.432C240.483 8.75467 240.248 10.2693 239.651 11.976C239.096 13.64 238.221 15.2613 237.027 16.84C235.875 18.376 234.445 19.656 232.739 20.68C231.032 21.704 229.133 22.216 227.043 22.216C225.72 22.216 224.653 21.8107 223.843 21C223.032 20.1467 222.627 18.9307 222.627 17.352C222.627 15.816 223.245 14.216 224.483 12.552C225.72 10.8453 227.427 9.26667 229.603 7.816C231.779 6.36533 234.275 5.192 237.091 4.296C239.949 3.35733 242.957 2.888 246.115 2.888C249.827 2.888 252.749 3.31466 254.882 4.168C257.059 5.02133 258.595 6.152 259.491 7.56C260.429 8.92533 260.899 10.376 260.899 11.912C260.899 13.1067 260.493 14.3867 259.683 15.752C258.915 17.1173 257.827 18.3973 256.419 19.592C255.011 20.744 253.347 21.704 251.427 22.472C249.549 23.1973 247.48 23.56 245.219 23.56ZM258.071 37.576C256.065 37.576 254.742 37.128 254.102 36.232C253.462 35.2933 253.142 34.312 253.142 33.288C253.142 31.5387 253.59 29.9173 254.486 28.424C255.382 26.888 256.535 25.5227 257.943 24.328C259.351 23.1333 260.801 22.216 262.295 21.576C263.831 20.8933 265.196 20.552 266.391 20.552C267.244 20.552 267.927 20.68 268.439 20.936C268.951 21.1493 269.207 21.6187 269.207 22.344C269.207 23.0267 268.801 23.752 267.991 24.52C267.18 25.288 266.156 26.0347 264.919 26.76C263.681 27.4427 262.38 28.0827 261.015 28.68C259.692 29.2347 258.476 29.6827 257.367 30.024C256.257 30.3653 255.447 30.536 254.934 30.536C254.934 30.536 254.934 30.4293 254.934 30.216C254.934 29.96 254.934 29.832 254.934 29.832C255.319 29.8747 255.98 29.7467 256.919 29.448C257.9 29.1493 258.988 28.7653 260.183 28.296C261.377 27.784 262.529 27.208 263.639 26.568C264.791 25.928 265.729 25.2453 266.455 24.52C267.223 23.7947 267.607 23.0907 267.607 22.408C267.607 22.0667 267.5 21.768 267.287 21.512C267.116 21.256 266.796 21.128 266.327 21.128C265.644 21.128 264.812 21.4693 263.831 22.152C262.892 22.792 261.932 23.6453 260.951 24.712C259.969 25.7787 259.052 26.9093 258.199 28.104C257.345 29.2987 256.641 30.4507 256.087 31.56C255.575 32.6267 255.319 33.5227 255.319 34.248C255.319 35.1013 255.575 35.7413 256.087 36.168C256.599 36.5947 257.345 36.808 258.327 36.808C260.033 36.808 261.633 36.4027 263.127 35.592C264.663 34.7387 266.049 33.7573 267.287 32.648C268.524 31.496 269.569 30.4293 270.423 29.448C271.276 28.424 271.852 27.7627 272.151 27.464C272.151 27.464 272.215 27.528 272.343 27.656C272.513 27.784 272.599 27.848 272.599 27.848C272.3 28.1893 271.724 28.872 270.871 29.896C270.017 30.92 268.951 32.0293 267.671 33.224C266.391 34.4187 264.94 35.4427 263.319 36.296C261.697 37.1493 259.948 37.576 258.071 37.576ZM284.864 9.352C285.248 9.52267 285.803 9.608 286.528 9.608C287.296 9.56533 287.893 9.50133 288.32 9.416C286.955 11.2933 285.44 13.3627 283.776 15.624C282.112 17.8853 280.427 20.1467 278.72 22.408C277.056 24.6267 275.499 26.7173 274.048 28.68C272.64 30.6 271.509 32.2213 270.656 33.544C269.803 34.8667 269.376 35.6987 269.376 36.04C269.376 36.296 269.525 36.488 269.824 36.616C270.08 36.744 270.421 36.808 270.848 36.808C271.787 36.808 272.811 36.488 273.92 35.848C275.072 35.1653 276.203 34.3333 277.312 33.352C278.464 32.328 279.509 31.304 280.448 30.28C281.429 29.2133 282.197 28.296 282.752 27.528L283.264 27.912C282.667 28.68 281.877 29.5973 280.896 30.664C279.915 31.7307 278.827 32.7973 277.632 33.864C276.437 34.9307 275.2 35.8267 273.92 36.552C272.683 37.2347 271.488 37.576 270.336 37.576C269.525 37.576 268.885 37.4053 268.416 37.064C267.904 36.7653 267.648 36.232 267.648 35.464C267.648 34.7813 268.053 33.736 268.864 32.328C269.675 30.8773 270.72 29.2133 272 27.336C273.323 25.4587 274.752 23.4747 276.288 21.384C277.824 19.2507 279.339 17.16 280.832 15.112C282.368 13.0213 283.712 11.1013 284.864 9.352ZM277.824 16.52C277.397 16.52 277.184 16.392 277.184 16.136C277.184 15.9227 277.397 15.816 277.824 15.816H289.984C290.112 15.816 290.24 15.8373 290.368 15.88C290.539 15.9227 290.624 16.008 290.624 16.136C290.624 16.3067 290.539 16.4133 290.368 16.456C290.24 16.4987 290.112 16.52 289.984 16.52H277.824ZM285.633 37.576C283.628 37.576 282.305 37.128 281.665 36.232C281.025 35.2933 280.705 34.312 280.705 33.288C280.705 31.5387 281.153 29.9173 282.049 28.424C282.945 26.888 284.097 25.5227 285.505 24.328C286.913 23.1333 288.364 22.216 289.857 21.576C291.393 20.8933 292.758 20.552 293.953 20.552C294.806 20.552 295.489 20.68 296.001 20.936C296.513 21.1493 296.769 21.6187 296.769 22.344C296.769 23.0267 296.364 23.752 295.553 24.52C294.742 25.288 293.718 26.0347 292.481 26.76C291.244 27.4427 289.942 28.0827 288.577 28.68C287.254 29.2347 286.038 29.6827 284.929 30.024C283.82 30.3653 283.009 30.536 282.497 30.536C282.497 30.536 282.497 30.4293 282.497 30.216C282.497 29.96 282.497 29.832 282.497 29.832C282.881 29.8747 283.542 29.7467 284.481 29.448C285.462 29.1493 286.55 28.7653 287.745 28.296C288.94 27.784 290.092 27.208 291.201 26.568C292.353 25.928 293.292 25.2453 294.017 24.52C294.785 23.7947 295.169 23.0907 295.169 22.408C295.169 22.0667 295.062 21.768 294.849 21.512C294.678 21.256 294.358 21.128 293.889 21.128C293.206 21.128 292.374 21.4693 291.393 22.152C290.454 22.792 289.494 23.6453 288.513 24.712C287.532 25.7787 286.614 26.9093 285.761 28.104C284.908 29.2987 284.204 30.4507 283.649 31.56C283.137 32.6267 282.881 33.5227 282.881 34.248C282.881 35.1013 283.137 35.7413 283.649 36.168C284.161 36.5947 284.908 36.808 285.889 36.808C287.596 36.808 289.196 36.4027 290.689 35.592C292.225 34.7387 293.612 33.7573 294.849 32.648C296.086 31.496 297.132 30.4293 297.985 29.448C298.838 28.424 299.414 27.7627 299.713 27.464C299.713 27.464 299.777 27.528 299.905 27.656C300.076 27.784 300.161 27.848 300.161 27.848C299.862 28.1893 299.286 28.872 298.433 29.896C297.58 30.92 296.513 32.0293 295.233 33.224C293.953 34.4187 292.502 35.4427 290.881 36.296C289.26 37.1493 287.51 37.576 285.633 37.576ZM299.562 28.616C299.392 28.7867 299.264 28.808 299.178 28.68C299.093 28.5093 299.072 28.3387 299.114 28.168C299.84 27.4427 300.544 26.5893 301.227 25.608C301.952 24.6267 302.549 23.7093 303.019 22.856C303.531 22.0027 303.829 21.4267 303.915 21.128C304 21.128 304.128 21.064 304.299 20.936C304.512 20.808 304.704 20.7653 304.875 20.808C304.832 21.1067 304.768 21.384 304.683 21.64C304.64 21.896 304.789 22.1307 305.131 22.344C305.472 22.5573 306.176 22.7707 307.243 22.984C308.309 23.1973 309.931 23.432 312.107 23.688C312.32 23.7307 312.469 23.816 312.555 23.944C312.683 24.0293 312.619 24.1787 312.363 24.392C311.552 25.032 310.656 25.8427 309.675 26.824C308.693 27.8053 307.733 28.8507 306.795 29.96C305.899 31.0267 305.152 32.072 304.555 33.096C304 34.12 303.723 34.9733 303.723 35.656C303.723 36.424 304.064 36.808 304.747 36.808C305.6 36.808 306.56 36.4667 307.627 35.784C308.736 35.1013 309.845 34.2693 310.955 33.288C312.064 32.264 313.088 31.24 314.027 30.216C315.008 29.1493 315.819 28.2747 316.458 27.592L316.971 27.976C316.373 28.5733 315.605 29.4053 314.667 30.472C313.728 31.5387 312.661 32.6267 311.467 33.736C310.315 34.8027 309.077 35.72 307.755 36.488C306.432 37.2133 305.067 37.576 303.659 37.576C302.848 37.576 302.123 37.384 301.483 37C300.843 36.6587 300.523 36.0187 300.523 35.08C300.523 34.184 300.907 33.2453 301.674 32.264C302.443 31.2827 303.403 30.3013 304.555 29.32C305.707 28.296 306.901 27.336 308.139 26.44C309.419 25.5013 310.549 24.648 311.531 23.88L311.979 24.456C311.552 24.2853 310.805 24.136 309.739 24.008C308.672 23.8373 307.563 23.624 306.411 23.368C305.259 23.0693 304.256 22.6853 303.403 22.216C302.592 21.7467 302.187 21.1067 302.187 20.296C302.187 19.8693 302.357 19.3573 302.699 18.76C303.083 18.12 303.595 17.8 304.235 17.8C304.832 17.8 305.237 17.928 305.451 18.184C305.664 18.3973 305.771 18.696 305.771 19.08C305.771 19.336 305.557 19.8693 305.131 20.68C304.704 21.448 304.171 22.3653 303.531 23.432C302.891 24.456 302.208 25.4373 301.483 26.376C300.8 27.3147 300.16 28.0613 299.562 28.616Z" fill="black"/>
</svg>
