<svg width="237" height="35" viewBox="0 0 237 35" fill="none" xmlns="http://www.w3.org/2000/svg">
<path d="M9.92 29.36C7.38667 29.36 5.28 28.64 3.6 27.2C1.84 25.6267 0.96 23.6 0.96 21.12C0.96 18.8267 1.77333 16.8667 3.4 15.24C5.08 13.6133 7.05333 12.8 9.32 12.8C10.9467 12.8 12.3733 13.2667 13.6 14.2C14.9333 15.1867 15.6 16.48 15.6 18.08C15.6 19.6267 15.08 20.8667 14.04 21.8C13.0267 22.6533 11.7467 23.08 10.2 23.08C9.16 23.08 8.48 22.96 8.16 22.72L8.12 22.64C8.2 22.5333 8.28 22.48 8.36 22.48C8.38667 22.48 8.41333 22.4933 8.44 22.52C8.57333 22.6 8.77333 22.6533 9.04 22.68C9.33333 22.7067 9.66667 22.72 10.04 22.72C11.5067 22.72 12.6667 22.2933 13.52 21.44C14.3733 20.6133 14.8 19.4667 14.8 18C14.8 16.56 14.3067 15.4 13.32 14.52C12.3333 13.6667 11.1333 13.24 9.72 13.24C7.53333 13.24 5.73333 13.9467 4.32 15.36C2.93333 16.7467 2.24 18.5467 2.24 20.76C2.24 23.16 3.01333 25.0533 4.56 26.44C6.05333 27.7733 8.02667 28.44 10.48 28.44C15.76 28.44 21.32 24.5067 27.16 16.64C31.6667 10.6133 35.2 6.86667 37.76 5.4L29.36 2.56C28.7733 2.34667 28.1733 2.2 27.56 2.12C26.9733 2.04 26.3733 2 25.76 2C23.68 2 21.7733 2.54666 20.04 3.64C18.0933 4.92 17.12 6.54667 17.12 8.52C17.12 9.42667 17.3333 10.3067 17.76 11.16C18.6667 13.0533 20.4 14 22.96 14C23.1733 14 23.3733 14 23.56 14C23.7467 14 23.9333 13.9867 24.12 13.96C25.2933 13.8 26.3467 13.2667 27.28 12.36C28.32 11.3467 28.84 10.3067 28.84 9.24C28.84 8.44 28.5067 7.84 27.84 7.44C27.8133 7.41333 27.8 7.37333 27.8 7.32C27.8 7.26667 27.8267 7.24 27.88 7.24C27.9067 7.24 27.92 7.25333 27.92 7.28C27.9467 7.28 27.9733 7.28 28 7.28H28.12C28.9733 7.73333 29.4 8.46667 29.4 9.48C29.4 10.5733 28.9333 11.6133 28 12.6C27.1467 13.4533 26.1333 14.0267 24.96 14.32C24.24 14.5067 23.4667 14.6 22.64 14.6C20.7733 14.6 19.1867 14.0133 17.88 12.84C16.5467 11.5867 15.88 10.0267 15.88 8.16C15.88 5.84 16.8267 3.97333 18.72 2.56C20.4267 1.25333 22.4667 0.599999 24.84 0.599999C25 0.599999 25.1467 0.599999 25.28 0.599999C25.44 0.599999 25.5867 0.613333 25.72 0.639999C28.8933 0.906665 32.3733 1.98667 36.16 3.88C36.4267 3.98667 36.7333 4.14666 37.08 4.36C37.4533 4.54667 37.88 4.78667 38.36 5.08C39.6133 4.12 41.1333 3.64 42.92 3.64C43.2933 3.64 43.6533 3.68 44 3.76C44.3733 3.81333 44.6933 3.92 44.96 4.08C45.7067 4.48 46.08 5.04 46.08 5.76C46.08 6.98667 45.4133 7.6 44.08 7.6C43.68 7.6 43.2267 7.53333 42.72 7.4C42.24 7.26667 41.9067 7.14667 41.72 7.04C41.4533 7.44 41.1733 7.86667 40.88 8.32C40.5867 8.77333 40.28 9.26667 39.96 9.8C39.5333 10.52 38.7733 12.2267 37.68 14.92C37.2533 15.9867 36.8 16.92 36.32 17.72C35.8667 18.52 35.3733 19.2133 34.84 19.8C32.68 22.1467 30.2 23.8667 27.4 24.96C27.4533 24.96 27.52 24.96 27.6 24.96C27.7067 24.9333 27.84 24.92 28 24.92H28.6C29.16 24.92 29.6667 24.9467 30.12 25C30.6 25.0533 31.04 25.12 31.44 25.2C33.0133 25.6 33.9333 25.8 34.2 25.8C34.68 25.8 34.92 25.6 34.92 25.2C34.92 25.04 34.8933 24.9067 34.84 24.8C34.8133 24.6933 34.8 24.6133 34.8 24.56C34.8 24.48 34.8 24.4267 34.8 24.4C34.8 24.3733 34.8 24.36 34.8 24.36C34.8267 24.3333 34.84 24.32 34.84 24.32C34.8667 24.32 34.8933 24.3333 34.92 24.36C35.16 24.6 35.28 24.92 35.28 25.32C35.28 26.3333 34.6 26.84 33.24 26.84C32.9733 26.84 32.68 26.8133 32.36 26.76C32.04 26.7067 31.6933 26.6 31.32 26.44L29.52 25.72C29.04 25.5067 28.5467 25.3733 28.04 25.32C27.5333 25.2933 27.0133 25.28 26.48 25.28L26.44 25.16C28.0133 24.04 29.4667 22.72 30.8 21.2C31.76 20.1333 32.8933 18.52 34.2 16.36C34.28 16.2267 34.44 15.96 34.68 15.56H28.64C27.1467 17.6933 25.7467 19.5467 24.44 21.12C23.1333 22.6667 21.9333 23.9067 20.84 24.84C17.4267 27.8533 13.7867 29.36 9.92 29.36ZM43.4 7.28C44.76 7.28 45.44 6.78667 45.44 5.8C45.44 5.21333 45.2 4.76 44.72 4.44C44.2933 4.12 43.7733 3.96 43.16 3.96C41.5067 3.96 40.0133 4.38667 38.68 5.24C39.1067 5.42667 39.5333 5.64 39.96 5.88C40.3867 6.09333 40.8133 6.30667 41.24 6.52L42.96 4.76C43.0133 4.76 43.04 4.78667 43.04 4.84C43.04 5 42.6533 5.66667 41.88 6.84C42.3867 7.13333 42.8933 7.28 43.4 7.28ZM28.96 15.12H34.96C36.64 12.3467 38.64 9.54667 40.96 6.72L38.16 5.56C37.4933 5.98667 36.7333 6.56 35.88 7.28C35.0533 8 34.16 8.88 33.2 9.92C31.5467 11.7333 30.1333 13.4667 28.96 15.12ZM43.1075 25.32C40.9475 25.32 39.8675 23.8933 39.8675 21.04C39.8675 19.3333 40.2408 17.3467 40.9875 15.08C41.3342 14.04 41.7075 13.04 42.1075 12.08C42.5075 11.12 42.9342 10.2267 43.3875 9.4C43.9475 8.38667 44.5342 7.42667 45.1475 6.52C45.7608 5.58667 46.4142 4.70667 47.1075 3.88C49.1075 1.4 50.8142 0.159998 52.2275 0.159998C52.8142 0.159998 53.1075 0.439998 53.1075 0.999999C53.1075 1.74667 52.8008 2.89333 52.1875 4.44C50.1342 9.53333 46.8008 14.1733 42.1875 18.36C41.7342 20.04 41.5075 21.3867 41.5075 22.4C41.5075 24.1333 42.0542 25 43.1475 25C43.5208 25 43.8808 24.9333 44.2275 24.8C44.5742 24.64 44.8808 24.4667 45.1475 24.28C45.8675 23.72 46.4808 23.0667 46.9875 22.32C47.4942 21.5733 47.9342 20.8267 48.3075 20.08C48.6808 19.3333 49.0142 18.7067 49.3075 18.2C49.3875 18.0667 49.4675 18.0267 49.5475 18.08C49.6275 18.1067 49.6408 18.1867 49.5875 18.32C49.0542 19.44 48.4675 20.5867 47.8275 21.76C47.1875 22.9333 46.3742 23.8667 45.3875 24.56C44.6675 25.0667 43.9075 25.32 43.1075 25.32ZM42.3075 17.96C42.8408 17.5067 43.4008 16.9467 43.9875 16.28C44.5742 15.6133 45.2008 14.8533 45.8675 14C46.5342 13.1467 47.2142 12.2 47.9075 11.16C48.6008 10.12 49.2942 9 49.9875 7.8C51.8542 4.62667 52.7875 2.41333 52.7875 1.16C52.7875 0.706666 52.6408 0.479999 52.3475 0.479999C51.3608 0.479999 49.6008 2.6 47.0675 6.84C46.4008 8.04 45.8008 9.2 45.2675 10.32C44.6275 11.7333 44.0542 13.08 43.5475 14.36C43.0675 15.6133 42.6542 16.8133 42.3075 17.96ZM51.8966 25.32C49.7366 25.32 48.6566 23.8933 48.6566 21.04C48.6566 19.3333 49.0299 17.3467 49.7766 15.08C50.1232 14.04 50.4966 13.04 50.8966 12.08C51.2966 11.12 51.7232 10.2267 52.1766 9.4C52.7366 8.38667 53.3232 7.42667 53.9366 6.52C54.5499 5.58667 55.2032 4.70667 55.8966 3.88C57.8966 1.4 59.6032 0.159998 61.0166 0.159998C61.6032 0.159998 61.8966 0.439998 61.8966 0.999999C61.8966 1.74667 61.5899 2.89333 60.9766 4.44C58.9232 9.53333 55.5899 14.1733 50.9766 18.36C50.5232 20.04 50.2966 21.3867 50.2966 22.4C50.2966 24.1333 50.8432 25 51.9366 25C52.3099 25 52.6699 24.9333 53.0166 24.8C53.3632 24.64 53.6699 24.4667 53.9366 24.28C54.6566 23.72 55.2699 23.0667 55.7766 22.32C56.2832 21.5733 56.7232 20.8267 57.0966 20.08C57.4699 19.3333 57.8032 18.7067 58.0966 18.2C58.1766 18.0667 58.2566 18.0267 58.3366 18.08C58.4166 18.1067 58.4299 18.1867 58.3766 18.32C57.8432 19.44 57.2566 20.5867 56.6166 21.76C55.9766 22.9333 55.1632 23.8667 54.1766 24.56C53.4566 25.0667 52.6966 25.32 51.8966 25.32ZM51.0966 17.96C51.6299 17.5067 52.1899 16.9467 52.7766 16.28C53.3632 15.6133 53.9899 14.8533 54.6566 14C55.3232 13.1467 56.0032 12.2 56.6966 11.16C57.3899 10.12 58.0832 9 58.7766 7.8C60.6432 4.62667 61.5766 2.41333 61.5766 1.16C61.5766 0.706666 61.4299 0.479999 61.1366 0.479999C60.1499 0.479999 58.3899 2.6 55.8566 6.84C55.1899 8.04 54.5899 9.2 54.0566 10.32C53.4166 11.7333 52.8432 13.08 52.3366 14.36C51.8566 15.6133 51.4432 16.8133 51.0966 17.96ZM61.1738 34.56C59.6537 34.56 58.8937 33.9733 58.8937 32.8C58.8937 31.4933 59.9871 30.2667 62.1738 29.12C62.4404 28.9867 62.8671 28.8267 63.4538 28.64C64.0671 28.4533 64.8271 28.2267 65.7338 27.96C66.3738 27.8 66.9471 27.64 67.4538 27.48C67.9604 27.3467 68.4138 27.2133 68.8138 27.08C68.9471 26.7067 69.1204 26.2533 69.3338 25.72C69.5471 25.2133 69.7604 24.6267 69.9738 23.96C70.1071 23.6133 70.2404 23.1867 70.3738 22.68C70.5338 22.1467 70.7338 21.5333 70.9738 20.84C71.2138 20.1467 71.5204 19.3867 71.8938 18.56C72.2938 17.7333 72.7604 16.8667 73.2938 15.96C73.0271 16.28 72.7071 16.7067 72.3338 17.24C71.9871 17.7467 71.5871 18.3467 71.1338 19.04C69.8538 21.0133 68.9871 22.2667 68.5338 22.8C67.2271 24.4 66.0404 25.2 64.9738 25.2C64.2804 25.2 63.7071 24.9733 63.2538 24.52C62.8271 24.0133 62.6138 23.4267 62.6138 22.76C62.6138 21.56 63.0538 20.2 63.9338 18.68C64.0671 18.4667 64.3338 18.0667 64.7338 17.48C65.1338 16.8667 65.6938 16.04 66.4138 15C67.2938 13.72 67.7338 12.8 67.7338 12.24C67.7338 11.9467 67.5604 11.8 67.2138 11.8C66.8938 11.8 66.5871 11.9067 66.2938 12.12C65.9738 12.3333 65.7871 12.5867 65.7338 12.88L65.6538 12.96H65.5338L65.4538 12.92C65.5071 12.5733 65.7338 12.2533 66.1338 11.96C66.5071 11.6933 66.8804 11.52 67.2538 11.44C67.3871 11.4133 67.5204 11.4 67.6538 11.4C67.8138 11.3733 67.9604 11.36 68.0938 11.36C69.0804 11.36 69.5738 11.7467 69.5738 12.52C69.5738 13.56 68.6804 15.2933 66.8938 17.72C65.2138 20.0667 64.3738 22 64.3738 23.52C64.3738 24.3467 64.7071 24.76 65.3738 24.76C66.4404 24.76 68.3071 22.7067 70.9738 18.6C73.2138 15.1333 75.0671 12.8667 76.5338 11.8C77.2271 11.2667 77.7604 11 78.1338 11C78.4271 11 78.5738 11.1467 78.5738 11.44C78.5738 11.7333 78.2538 11.9867 77.6138 12.2C76.1471 12.6267 74.9204 13.68 73.9338 15.36C73.5604 16.0267 73.2271 16.7467 72.9338 17.52C72.6404 18.2933 72.4271 19.1333 72.2938 20.04C72.1871 20.5467 72.0938 21.0533 72.0138 21.56C71.9604 22.0667 71.8938 22.5733 71.8138 23.08C71.7071 23.5867 71.6004 24.08 71.4938 24.56C71.3871 25.04 71.2404 25.56 71.0538 26.12C74.5471 24.52 77.1604 21.96 78.8938 18.44C78.9738 18.3067 79.0404 18.24 79.0938 18.24C79.2271 18.24 79.2538 18.3467 79.1738 18.56C78.2938 20.4 77.1604 22 75.7738 23.36C74.4138 24.6933 72.7871 25.76 70.8938 26.56C70.2271 28.2133 69.4538 29.5867 68.5738 30.68C67.7204 31.8 66.5071 32.7733 64.9338 33.6C63.7338 34.24 62.4804 34.56 61.1738 34.56ZM61.4138 34.2C64.3471 34.2 66.7338 32.0267 68.5738 27.68C68.1738 27.8133 67.7204 27.96 67.2138 28.12C66.7071 28.3067 66.1471 28.48 65.5338 28.64C65.1871 28.7467 64.7471 28.88 64.2138 29.04C63.6804 29.2267 63.0671 29.4533 62.3738 29.72C62.0538 29.9067 61.7471 30.1067 61.4538 30.32C61.1604 30.56 60.8671 30.8267 60.5737 31.12C59.9071 31.84 59.5737 32.4933 59.5737 33.08C59.5737 33.8267 60.1871 34.2 61.4138 34.2ZM82.1431 25.36C80.9698 25.36 80.0765 24.8533 79.4631 23.84C78.9031 22.9867 78.6231 21.9467 78.6231 20.72C78.6231 18.6133 79.2898 16.6533 80.6231 14.84C82.0898 12.8667 83.8498 11.88 85.9031 11.88C86.9431 11.88 87.7431 12.24 88.3031 12.96C88.8365 13.6533 89.1031 14.5333 89.1031 15.6C89.1031 16.08 89.0498 16.5733 88.9431 17.08C88.8631 17.5867 88.7298 18.12 88.5431 18.68C88.1431 19.8533 87.6498 20.7733 87.0631 21.44L87.1431 21.56C87.4098 21.7467 87.7298 21.84 88.1031 21.84C88.8765 21.84 89.5298 21.5867 90.0631 21.08C90.5965 20.5733 91.1965 19.6667 91.8631 18.36C91.8898 18.2533 91.9431 18.2 92.0231 18.2C92.0765 18.2 92.1165 18.24 92.1431 18.32C92.1698 18.3733 92.1565 18.4533 92.1031 18.56C91.5431 19.7333 90.9431 20.6267 90.3031 21.24C89.6898 21.8533 88.9698 22.16 88.1431 22.16C87.6098 22.16 87.1965 22.0133 86.9031 21.72C86.6365 22.2 86.3431 22.6533 86.0231 23.08C85.7031 23.48 85.3431 23.84 84.9431 24.16C84.0365 24.96 83.1031 25.36 82.1431 25.36ZM82.4231 25.04C83.8365 25.04 85.2231 23.96 86.5831 21.8C86.5831 21.72 86.6231 21.64 86.7031 21.56C86.2231 20.76 85.9831 20 85.9831 19.28C85.9831 19.2533 85.9831 19.2 85.9831 19.12C85.9831 19.0133 85.9965 18.88 86.0231 18.72C86.0498 18.4267 86.1031 18.1333 86.1831 17.84C86.2631 17.52 86.3965 17.2267 86.5831 16.96C86.9831 16.32 87.4631 16 88.0231 16H88.3831C88.4898 16.0267 88.5698 16.04 88.6231 16.04C88.6765 16.04 88.7165 16.04 88.7431 16.04C88.7431 13.64 87.9831 12.44 86.4631 12.44C85.1831 12.44 83.9698 13.2133 82.8231 14.76C81.8898 15.9867 81.2231 17.36 80.8231 18.88C80.5831 19.7067 80.4631 20.5733 80.4631 21.48C80.4631 23.8533 81.1165 25.04 82.4231 25.04ZM92.5928 25.24C91.9261 25.24 91.3928 25.0133 90.9928 24.56C90.6195 24.1067 90.4328 23.56 90.4328 22.92C90.4328 22.3333 90.6061 21.56 90.9528 20.6C91.3261 19.64 91.8461 18.4933 92.5128 17.16C92.8061 16.5733 93.1795 15.8667 93.6328 15.04C94.1128 14.1867 94.6861 13.2133 95.3528 12.12H95.4328C95.6195 12.2533 95.8328 12.32 96.0728 12.32C96.6328 12.32 97.2728 12.04 97.9928 11.48L98.0728 11.56C97.6728 12.0133 96.9795 13.12 95.9928 14.88C95.6728 15.44 95.3661 15.96 95.0728 16.44C94.8061 16.92 94.5395 17.3733 94.2728 17.8C92.6995 20.4933 91.9128 22.4667 91.9128 23.72C91.9128 24.44 92.2461 24.8 92.9128 24.8C94.4061 24.8 96.4728 22.4667 99.1128 17.8C99.4861 17.1333 99.9261 16.3067 100.433 15.32C100.939 14.3333 101.526 13.1867 102.193 11.88H102.273C102.459 11.96 102.633 12.0267 102.793 12.08C102.953 12.1333 103.113 12.16 103.273 12.16C103.859 12.16 104.273 11.8933 104.513 11.36L104.633 11.4L101.513 17.44C99.6728 20.96 98.7528 23.1867 98.7528 24.12C98.7528 24.6 98.9795 24.84 99.4328 24.84C99.7528 24.84 100.139 24.7067 100.593 24.44C101.073 24.1733 101.566 23.76 102.073 23.2C102.713 22.4533 103.259 21.7467 103.713 21.08C104.193 20.3867 104.739 19.4533 105.353 18.28C105.433 18.1467 105.513 18.08 105.593 18.08C105.753 18.08 105.753 18.2133 105.593 18.48C105.113 19.3867 104.593 20.2933 104.033 21.2C103.499 22.08 102.846 22.9067 102.073 23.68C101.059 24.6933 100.166 25.2 99.3928 25.2C98.6995 25.2 98.1661 25.0267 97.7928 24.68C97.4461 24.3333 97.2728 23.7733 97.2728 23C97.2728 22.36 97.4061 21.6533 97.6728 20.88C95.8861 23.7867 94.1928 25.24 92.5928 25.24ZM108.278 26.36L108.238 26.28C109.198 24.2 110.438 21.32 111.958 17.64C112.198 17.0267 112.478 16.2667 112.798 15.36C113.145 14.4533 113.532 13.4 113.958 12.2H114.038C114.305 12.4133 114.532 12.52 114.718 12.52C115.385 12.52 116.012 11.9467 116.598 10.8V10.84C116.598 10.8933 116.012 12.32 114.838 15.12C114.198 16.64 113.718 17.8 113.398 18.6C113.078 19.4 112.892 19.8533 112.838 19.96C115.878 14.4933 118.305 11.76 120.118 11.76C120.518 11.76 120.878 11.8933 121.198 12.16C121.518 12.4267 121.678 12.7733 121.678 13.2C121.678 14.32 120.918 16.16 119.398 18.72C117.878 21.28 117.118 23.0267 117.118 23.96C117.118 24.3067 117.252 24.5733 117.518 24.76C117.785 24.9467 118.105 25.04 118.478 25.04C118.852 25.04 119.238 24.96 119.638 24.8C120.038 24.64 120.372 24.4667 120.638 24.28C121.358 23.72 121.972 23.0667 122.478 22.32C122.985 21.5733 123.425 20.8267 123.798 20.08C124.172 19.3333 124.505 18.7067 124.798 18.2C124.878 18.0667 124.958 18.0267 125.038 18.08C125.118 18.1067 125.132 18.1867 125.078 18.32C124.545 19.44 123.958 20.5867 123.318 21.76C122.678 22.9333 121.865 23.8667 120.878 24.56C120.532 24.8 120.145 25 119.718 25.16C119.318 25.32 118.892 25.4 118.438 25.4C117.692 25.4 117.078 25.2 116.598 24.8C116.145 24.4 115.918 23.7867 115.918 22.96C115.918 21.52 116.585 19.7067 117.918 17.52C119.278 15.28 119.958 13.8667 119.958 13.28C119.958 12.8267 119.705 12.6 119.198 12.6H118.958C118.372 12.6 117.572 13.28 116.558 14.64C115.545 15.9733 114.318 17.9467 112.878 20.56C112.532 21.1467 112.172 21.8267 111.798 22.6C111.452 23.3467 111.078 24.1867 110.678 25.12L110.598 25.16C110.278 25 109.998 24.92 109.758 24.92C109.412 24.92 109.118 25.1333 108.878 25.56C108.665 26.0133 108.465 26.28 108.278 26.36ZM127.405 25.4C126.099 25.4 125.192 25.04 124.685 24.32C124.179 23.5733 123.925 22.5333 123.925 21.2C123.925 19.28 124.725 17.28 126.325 15.2C128.032 13.0133 129.805 11.92 131.645 11.92C133.005 11.92 133.685 12.3867 133.685 13.32C133.685 14.4667 133.059 15.6667 131.805 16.92C130.019 18.7333 128.139 19.64 126.165 19.64C125.845 20.4667 125.685 21.2933 125.685 22.12C125.685 23.0267 125.859 23.7333 126.205 24.24C126.552 24.7467 127.059 25 127.725 25C128.419 25 129.139 24.8133 129.885 24.44C130.632 24.04 131.272 23.5733 131.805 23.04C132.259 22.5867 132.765 21.9733 133.325 21.2C133.912 20.4 134.499 19.4267 135.085 18.28C135.165 18.1467 135.245 18.08 135.325 18.08C135.485 18.08 135.485 18.2133 135.325 18.48C134.872 19.3867 134.379 20.2533 133.845 21.08C133.339 21.9067 132.659 22.7067 131.805 23.48C131.299 23.9867 130.659 24.44 129.885 24.84C129.112 25.2133 128.285 25.4 127.405 25.4ZM126.205 19.36C127.672 19.36 129.312 18.5733 131.125 17V16.96C131.632 16.5333 132.112 15.9467 132.565 15.2C133.099 14.3733 133.365 13.6667 133.365 13.08C133.365 12.6533 133.045 12.44 132.405 12.44C131.392 12.44 130.165 13.3467 128.725 15.16C128.059 15.96 127.525 16.7067 127.125 17.4C126.725 18.0933 126.419 18.7467 126.205 19.36ZM137.757 25.4C136.45 25.4 135.544 25.04 135.037 24.32C134.53 23.5733 134.277 22.5333 134.277 21.2C134.277 19.28 135.077 17.28 136.677 15.2C138.384 13.0133 140.157 11.92 141.997 11.92C143.357 11.92 144.037 12.3867 144.037 13.32C144.037 14.4667 143.41 15.6667 142.157 16.92C140.37 18.7333 138.49 19.64 136.517 19.64C136.197 20.4667 136.037 21.2933 136.037 22.12C136.037 23.0267 136.21 23.7333 136.557 24.24C136.904 24.7467 137.41 25 138.077 25C138.77 25 139.49 24.8133 140.237 24.44C140.984 24.04 141.624 23.5733 142.157 23.04C142.61 22.5867 143.117 21.9733 143.677 21.2C144.264 20.4 144.85 19.4267 145.437 18.28C145.517 18.1467 145.597 18.08 145.677 18.08C145.837 18.08 145.837 18.2133 145.677 18.48C145.224 19.3867 144.73 20.2533 144.197 21.08C143.69 21.9067 143.01 22.7067 142.157 23.48C141.65 23.9867 141.01 24.44 140.237 24.84C139.464 25.2133 138.637 25.4 137.757 25.4ZM136.557 19.36C138.024 19.36 139.664 18.5733 141.477 17V16.96C141.984 16.5333 142.464 15.9467 142.917 15.2C143.45 14.3733 143.717 13.6667 143.717 13.08C143.717 12.6533 143.397 12.44 142.757 12.44C141.744 12.44 140.517 13.3467 139.077 15.16C138.41 15.96 137.877 16.7067 137.477 17.4C137.077 18.0933 136.77 18.7467 136.557 19.36ZM147.228 25.2C146.268 25.2 145.588 24.8 145.188 24C144.788 23.2 144.588 22.32 144.588 21.36C144.588 20.3733 144.735 19.52 145.028 18.8C145.402 17.8133 145.948 16.8133 146.668 15.8C147.388 14.76 148.255 13.8933 149.268 13.2C150.282 12.48 151.388 12.12 152.588 12.12C153.922 12.12 154.588 12.8933 154.588 14.44C154.588 15.2133 154.428 16.04 154.108 16.92L160.628 4.12H160.708C160.815 4.22667 161.002 4.28 161.268 4.28C161.828 4.28 162.495 3.97333 163.268 3.36L163.348 3.44L157.348 14.92C155.028 19.3733 153.868 22.2933 153.868 23.68C153.868 24.4 154.162 24.76 154.748 24.76C155.068 24.76 155.455 24.64 155.908 24.4C156.362 24.16 156.842 23.76 157.348 23.2C157.988 22.4533 158.535 21.7467 158.988 21.08C159.468 20.3867 160.015 19.4533 160.628 18.28C160.708 18.1467 160.788 18.08 160.868 18.08C161.028 18.08 161.028 18.2133 160.868 18.48C160.388 19.3867 159.868 20.2933 159.308 21.2C158.775 22.08 158.122 22.9067 157.348 23.68C156.388 24.64 155.495 25.12 154.668 25.12C154.002 25.12 153.442 24.9333 152.988 24.56C152.562 24.1867 152.348 23.5467 152.348 22.64C152.348 21.7867 152.495 20.84 152.788 19.8C150.922 23.4 149.068 25.2 147.228 25.2ZM147.508 24.84C148.228 24.84 149.082 24.3067 150.068 23.24C151.055 22.1733 152.082 20.6267 153.148 18.6C153.255 18.3867 153.388 18.0533 153.548 17.6C153.735 17.12 153.895 16.6 154.028 16.04C154.188 15.4533 154.268 14.9067 154.268 14.4C154.268 13.8667 154.162 13.4267 153.948 13.08C153.735 12.7333 153.362 12.56 152.828 12.56C152.322 12.56 151.775 12.7467 151.188 13.12C150.628 13.4667 150.042 14.0667 149.428 14.92C148.415 16.28 147.682 17.6 147.228 18.88C147.175 19.04 147.082 19.36 146.948 19.84C146.815 20.2933 146.695 20.8133 146.588 21.4C146.482 21.96 146.428 22.5067 146.428 23.04C146.428 23.5467 146.508 23.9733 146.668 24.32C146.828 24.6667 147.108 24.84 147.508 24.84ZM173.152 9.8C172.299 9.8 171.872 9.38667 171.872 8.56C171.872 7.65333 172.285 7.2 173.112 7.2C173.965 7.2 174.392 7.61333 174.392 8.44C174.392 9.34667 173.979 9.8 173.152 9.8ZM168.432 25.4C166.672 25.4 165.792 24.4267 165.792 22.48C165.792 21.0667 166.205 19.5733 167.032 18L170.032 12.12H170.152C170.232 12.2267 170.392 12.28 170.632 12.28C171.139 12.28 171.805 11.9733 172.632 11.36L172.712 11.44L169.312 18.04C167.899 20.76 167.192 22.6533 167.192 23.72C167.192 24.2 167.325 24.5333 167.592 24.72C167.859 24.9067 168.165 25 168.512 25C168.885 25 169.245 24.92 169.592 24.76C169.965 24.6 170.285 24.4267 170.552 24.24C171.272 23.68 171.872 23.04 172.352 22.32C172.859 21.5733 173.299 20.8267 173.672 20.08C174.045 19.3333 174.379 18.7067 174.672 18.2C174.752 18.0667 174.832 18.0267 174.912 18.08C174.992 18.1067 175.005 18.1867 174.952 18.32C174.419 19.44 173.832 20.5867 173.192 21.76C172.552 22.9333 171.739 23.8667 170.752 24.56C170.405 24.8 170.032 25 169.632 25.16C169.259 25.32 168.859 25.4 168.432 25.4ZM177.047 25.48C174.354 25.48 173.007 24.2 173.007 21.64C173.007 20.92 173.127 20.1467 173.367 19.32V19.36C173.501 18.88 173.754 18.4133 174.127 17.96C174.581 17.4 174.994 17.12 175.367 17.12C175.367 17.12 175.407 17.12 175.487 17.12C175.567 17.12 175.701 17.1467 175.887 17.2L176.327 16.52C176.701 15.96 177.034 15.4 177.327 14.84C177.647 14.2533 177.981 13.68 178.327 13.12C179.314 11.4133 180.061 10.4933 180.567 10.36C180.727 10.3067 180.847 10.28 180.927 10.28C181.327 10.28 181.527 10.4267 181.527 10.72C181.527 11.0667 181.234 11.28 180.647 11.36C180.114 11.44 179.781 11.5067 179.647 11.56C179.434 11.72 179.327 12.0667 179.327 12.6C179.327 13.16 179.687 14.1067 180.407 15.44C181.127 16.7467 181.487 17.9067 181.487 18.92C181.487 19.1867 181.461 19.44 181.407 19.68C181.381 19.92 181.341 20.1733 181.287 20.44C180.567 23.4533 178.661 24.96 175.567 24.96C176.181 25.0933 176.741 25.16 177.247 25.16C178.181 25.16 179.087 25 179.967 24.68C180.847 24.3333 181.661 23.8667 182.407 23.28C183.181 22.6667 183.887 21.9333 184.527 21.08C185.194 20.2 185.767 19.2667 186.247 18.28C186.327 18.12 186.407 18.04 186.487 18.04C186.647 18.04 186.661 18.1733 186.527 18.44C186.101 19.24 185.647 20 185.167 20.72C184.714 21.4133 184.221 22.04 183.687 22.6C183.047 23.24 182.181 23.88 181.087 24.52C179.994 25.16 178.647 25.48 177.047 25.48ZM175.287 24.64C176.647 24.64 177.767 23.6133 178.647 21.56C179.367 19.96 179.727 18.3467 179.727 16.72C179.727 16.5067 179.687 16.2267 179.607 15.88C179.554 15.5067 179.461 15.0667 179.327 14.56C179.221 14.08 179.141 13.6667 179.087 13.32C179.034 12.9467 179.021 12.6267 179.047 12.36C178.541 13.3733 178.034 14.2933 177.527 15.12C177.021 15.9467 176.541 16.6933 176.087 17.36C176.221 17.5733 176.287 17.7867 176.287 18C176.287 18.3733 176.141 18.7867 175.847 19.24C175.661 19.5067 175.341 19.76 174.887 20C174.434 20.24 174.114 20.4667 173.927 20.68C173.634 21.1067 173.487 21.6667 173.487 22.36C173.487 23.88 174.087 24.64 175.287 24.64ZM194.24 25.32C192.08 25.32 191 23.8933 191 21.04C191 19.3333 191.374 17.3467 192.12 15.08C192.467 14.04 192.84 13.04 193.24 12.08C193.64 11.12 194.067 10.2267 194.52 9.4C195.08 8.38667 195.667 7.42667 196.28 6.52C196.894 5.58667 197.547 4.70667 198.24 3.88C200.24 1.4 201.947 0.159998 203.36 0.159998C203.947 0.159998 204.24 0.439998 204.24 0.999999C204.24 1.74667 203.934 2.89333 203.32 4.44C201.267 9.53333 197.934 14.1733 193.32 18.36C192.867 20.04 192.64 21.3867 192.64 22.4C192.64 24.1333 193.187 25 194.28 25C194.654 25 195.014 24.9333 195.36 24.8C195.707 24.64 196.014 24.4667 196.28 24.28C197 23.72 197.614 23.0667 198.12 22.32C198.627 21.5733 199.067 20.8267 199.44 20.08C199.814 19.3333 200.147 18.7067 200.44 18.2C200.52 18.0667 200.6 18.0267 200.68 18.08C200.76 18.1067 200.774 18.1867 200.72 18.32C200.187 19.44 199.6 20.5867 198.96 21.76C198.32 22.9333 197.507 23.8667 196.52 24.56C195.8 25.0667 195.04 25.32 194.24 25.32ZM193.44 17.96C193.974 17.5067 194.534 16.9467 195.12 16.28C195.707 15.6133 196.334 14.8533 197 14C197.667 13.1467 198.347 12.2 199.04 11.16C199.734 10.12 200.427 9 201.12 7.8C202.987 4.62667 203.92 2.41333 203.92 1.16C203.92 0.706666 203.774 0.479999 203.48 0.479999C202.494 0.479999 200.734 2.6 198.2 6.84C197.534 8.04 196.934 9.2 196.4 10.32C195.76 11.7333 195.187 13.08 194.68 14.36C194.2 15.6133 193.787 16.8133 193.44 17.96ZM203.549 25.36C202.376 25.36 201.483 24.8533 200.869 23.84C200.309 22.9867 200.029 21.9467 200.029 20.72C200.029 18.6133 200.696 16.6533 202.029 14.84C203.496 12.8667 205.256 11.88 207.309 11.88C208.349 11.88 209.149 12.24 209.709 12.96C210.243 13.6533 210.509 14.5333 210.509 15.6C210.509 16.08 210.456 16.5733 210.349 17.08C210.269 17.5867 210.136 18.12 209.949 18.68C209.549 19.8533 209.056 20.7733 208.469 21.44L208.549 21.56C208.816 21.7467 209.136 21.84 209.509 21.84C210.283 21.84 210.936 21.5867 211.469 21.08C212.003 20.5733 212.603 19.6667 213.269 18.36C213.296 18.2533 213.349 18.2 213.429 18.2C213.483 18.2 213.523 18.24 213.549 18.32C213.576 18.3733 213.563 18.4533 213.509 18.56C212.949 19.7333 212.349 20.6267 211.709 21.24C211.096 21.8533 210.376 22.16 209.549 22.16C209.016 22.16 208.603 22.0133 208.309 21.72C208.043 22.2 207.749 22.6533 207.429 23.08C207.109 23.48 206.749 23.84 206.349 24.16C205.443 24.96 204.509 25.36 203.549 25.36ZM203.829 25.04C205.243 25.04 206.629 23.96 207.989 21.8C207.989 21.72 208.029 21.64 208.109 21.56C207.629 20.76 207.389 20 207.389 19.28C207.389 19.2533 207.389 19.2 207.389 19.12C207.389 19.0133 207.403 18.88 207.429 18.72C207.456 18.4267 207.509 18.1333 207.589 17.84C207.669 17.52 207.803 17.2267 207.989 16.96C208.389 16.32 208.869 16 209.429 16H209.789C209.896 16.0267 209.976 16.04 210.029 16.04C210.083 16.04 210.123 16.04 210.149 16.04C210.149 13.64 209.389 12.44 207.869 12.44C206.589 12.44 205.376 13.2133 204.229 14.76C203.296 15.9867 202.629 17.36 202.229 18.88C201.989 19.7067 201.869 20.5733 201.869 21.48C201.869 23.8533 202.523 25.04 203.829 25.04ZM214.919 25.2C213.266 25.2 212.439 24.16 212.439 22.08C212.439 21.2267 212.626 20.24 212.999 19.12C213.212 18.56 213.599 17.6933 214.159 16.52C214.746 15.3467 215.519 13.88 216.479 12.12H216.559C216.772 12.2533 216.999 12.32 217.239 12.32C217.879 12.32 218.559 12.0533 219.279 11.52L219.319 11.6C218.572 12.3467 217.292 14.4133 215.479 17.8C214.412 19.8533 213.879 21.72 213.879 23.4C213.879 24.3867 214.199 24.88 214.839 24.88C216.466 24.88 218.346 23.1333 220.479 19.64C220.186 19.1333 220.039 18.3467 220.039 17.28C220.039 16.96 220.052 16.64 220.079 16.32C220.132 15.9733 220.186 15.6267 220.239 15.28C220.319 14.6667 220.519 14.0133 220.839 13.32C221.239 12.3867 221.652 11.92 222.079 11.92C222.586 11.92 222.839 12.36 222.839 13.24C222.839 14.7867 222.146 16.8933 220.759 19.56C220.812 19.9067 220.986 20.28 221.279 20.68C221.599 21.08 221.972 21.28 222.399 21.28C223.546 21.28 224.586 20.3333 225.519 18.44C225.599 18.28 225.679 18.2267 225.759 18.28C225.866 18.3333 225.879 18.4267 225.799 18.56C225.292 19.5467 224.772 20.2933 224.239 20.8C223.732 21.3067 223.132 21.56 222.439 21.56C222.066 21.56 221.706 21.44 221.359 21.2C221.039 20.9333 220.772 20.5467 220.559 20.04C219.946 21.32 219.199 22.4133 218.319 23.32C217.146 24.5733 216.012 25.2 214.919 25.2ZM228.265 25.4C226.958 25.4 226.051 25.04 225.545 24.32C225.038 23.5733 224.785 22.5333 224.785 21.2C224.785 19.28 225.585 17.28 227.185 15.2C228.891 13.0133 230.665 11.92 232.505 11.92C233.865 11.92 234.545 12.3867 234.545 13.32C234.545 14.4667 233.918 15.6667 232.665 16.92C230.878 18.7333 228.998 19.64 227.025 19.64C226.705 20.4667 226.545 21.2933 226.545 22.12C226.545 23.0267 226.718 23.7333 227.065 24.24C227.411 24.7467 227.918 25 228.585 25C229.278 25 229.998 24.8133 230.745 24.44C231.491 24.04 232.131 23.5733 232.665 23.04C233.118 22.5867 233.625 21.9733 234.185 21.2C234.771 20.4 235.358 19.4267 235.945 18.28C236.025 18.1467 236.105 18.08 236.185 18.08C236.345 18.08 236.345 18.2133 236.185 18.48C235.731 19.3867 235.238 20.2533 234.705 21.08C234.198 21.9067 233.518 22.7067 232.665 23.48C232.158 23.9867 231.518 24.44 230.745 24.84C229.971 25.2133 229.145 25.4 228.265 25.4ZM227.065 19.36C228.531 19.36 230.171 18.5733 231.985 17V16.96C232.491 16.5333 232.971 15.9467 233.425 15.2C233.958 14.3733 234.225 13.6667 234.225 13.08C234.225 12.6533 233.905 12.44 233.265 12.44C232.251 12.44 231.025 13.3467 229.585 15.16C228.918 15.96 228.385 16.7067 227.985 17.4C227.585 18.0933 227.278 18.7467 227.065 19.36Z" fill="black"/>
</svg>
